%TF.GenerationSoftware,KiCad,Pcbnew,5.1.9-73d0e3b20d~88~ubuntu20.04.1*%
%TF.CreationDate,2021-03-24T21:29:24+01:00*%
%TF.ProjectId,10_KiCad_WCP,31305f4b-6943-4616-945f-5743502e6b69,rev?*%
%TF.SameCoordinates,Original*%
%TF.FileFunction,Copper,L2,Bot*%
%TF.FilePolarity,Positive*%
%FSLAX46Y46*%
G04 Gerber Fmt 4.6, Leading zero omitted, Abs format (unit mm)*
G04 Created by KiCad (PCBNEW 5.1.9-73d0e3b20d~88~ubuntu20.04.1) date 2021-03-24 21:29:24*
%MOMM*%
%LPD*%
G01*
G04 APERTURE LIST*
%TA.AperFunction,ComponentPad*%
%ADD10O,1.600000X1.600000*%
%TD*%
%TA.AperFunction,ComponentPad*%
%ADD11C,1.600000*%
%TD*%
%TA.AperFunction,ComponentPad*%
%ADD12C,2.000000*%
%TD*%
%TA.AperFunction,ComponentPad*%
%ADD13C,1.800000*%
%TD*%
%TA.AperFunction,ComponentPad*%
%ADD14R,1.800000X1.800000*%
%TD*%
%TA.AperFunction,ComponentPad*%
%ADD15R,1.600000X1.600000*%
%TD*%
%TA.AperFunction,ComponentPad*%
%ADD16O,1.700000X1.700000*%
%TD*%
%TA.AperFunction,ComponentPad*%
%ADD17R,1.700000X1.700000*%
%TD*%
%TA.AperFunction,Conductor*%
%ADD18C,0.500000*%
%TD*%
%TA.AperFunction,Conductor*%
%ADD19C,0.250000*%
%TD*%
%TA.AperFunction,Conductor*%
%ADD20C,0.254000*%
%TD*%
%TA.AperFunction,Conductor*%
%ADD21C,0.100000*%
%TD*%
G04 APERTURE END LIST*
D10*
%TO.P,R2,2*%
%TO.N,/THR*%
X86614000Y-56388000D03*
D11*
%TO.P,R2,1*%
%TO.N,+9V*%
X86614000Y-48768000D03*
%TD*%
D12*
%TO.P,TP6,1*%
%TO.N,Net-(D3-Pad2)*%
X92354400Y-60299600D03*
%TD*%
%TO.P,TP5,1*%
%TO.N,+9V*%
X86537800Y-60147200D03*
%TD*%
%TO.P,TP4,1*%
%TO.N,/THR*%
X110236000Y-52578000D03*
%TD*%
%TO.P,TP3,1*%
%TO.N,GND*%
X94742000Y-43243500D03*
%TD*%
%TO.P,TP2,1*%
%TO.N,GND*%
X88392000Y-43307000D03*
%TD*%
%TO.P,TP1,1*%
%TO.N,GND*%
X100838000Y-43434000D03*
%TD*%
D13*
%TO.P,D3,2*%
%TO.N,Net-(D3-Pad2)*%
X98856800Y-60909200D03*
D14*
%TO.P,D3,1*%
%TO.N,Net-(D3-Pad1)*%
X101396800Y-60909200D03*
%TD*%
D10*
%TO.P,R3,2*%
%TO.N,GND*%
X97472500Y-48514000D03*
D11*
%TO.P,R3,1*%
%TO.N,Net-(D3-Pad1)*%
X97472500Y-56134000D03*
%TD*%
D10*
%TO.P,U1,8*%
%TO.N,+9V*%
X81737200Y-52679600D03*
%TO.P,U1,4*%
X74117200Y-60299600D03*
%TO.P,U1,7*%
X81737200Y-55219600D03*
%TO.P,U1,3*%
%TO.N,Net-(D3-Pad2)*%
X74117200Y-57759600D03*
%TO.P,U1,6*%
%TO.N,/THR*%
X81737200Y-57759600D03*
%TO.P,U1,2*%
X74117200Y-55219600D03*
%TO.P,U1,5*%
%TO.N,Net-(U1-Pad5)*%
X81737200Y-60299600D03*
D15*
%TO.P,U1,1*%
%TO.N,GND*%
X74117200Y-52679600D03*
%TD*%
D16*
%TO.P,J1,2*%
%TO.N,GND*%
X78028800Y-42849800D03*
D17*
%TO.P,J1,1*%
%TO.N,+9V*%
X80568800Y-42849800D03*
%TD*%
D10*
%TO.P,D2,2*%
%TO.N,/THR*%
X92329000Y-56388000D03*
D15*
%TO.P,D2,1*%
%TO.N,+9V*%
X92329000Y-48768000D03*
%TD*%
D11*
%TO.P,C2,2*%
%TO.N,GND*%
X104013000Y-51094000D03*
D15*
%TO.P,C2,1*%
%TO.N,/THR*%
X104013000Y-53594000D03*
%TD*%
D11*
%TO.P,C1,2*%
%TO.N,GND*%
X76813400Y-47625000D03*
%TO.P,C1,1*%
%TO.N,+9V*%
X81813400Y-47625000D03*
%TD*%
D18*
%TO.N,+9V*%
X81737200Y-52679600D02*
X74117200Y-60299600D01*
D19*
%TO.N,/THR*%
X86614000Y-56388000D02*
X92329000Y-56388000D01*
X85242400Y-57759600D02*
X86614000Y-56388000D01*
X81737200Y-57759600D02*
X85242400Y-57759600D01*
%TD*%
D20*
%TO.N,GND*%
X112340001Y-64340000D02*
X61660000Y-64340000D01*
X61660000Y-59779872D01*
X63765000Y-59779872D01*
X63765000Y-60220128D01*
X63850890Y-60651925D01*
X64019369Y-61058669D01*
X64263962Y-61424729D01*
X64575271Y-61736038D01*
X64941331Y-61980631D01*
X65348075Y-62149110D01*
X65779872Y-62235000D01*
X66220128Y-62235000D01*
X66651925Y-62149110D01*
X67058669Y-61980631D01*
X67424729Y-61736038D01*
X67736038Y-61424729D01*
X67980631Y-61058669D01*
X68149110Y-60651925D01*
X68235000Y-60220128D01*
X68235000Y-59779872D01*
X68149110Y-59348075D01*
X67980631Y-58941331D01*
X67736038Y-58575271D01*
X67424729Y-58263962D01*
X67058669Y-58019369D01*
X66651925Y-57850890D01*
X66220128Y-57765000D01*
X65779872Y-57765000D01*
X65348075Y-57850890D01*
X64941331Y-58019369D01*
X64575271Y-58263962D01*
X64263962Y-58575271D01*
X64019369Y-58941331D01*
X63850890Y-59348075D01*
X63765000Y-59779872D01*
X61660000Y-59779872D01*
X61660000Y-53479600D01*
X72679128Y-53479600D01*
X72691388Y-53604082D01*
X72727698Y-53723780D01*
X72786663Y-53834094D01*
X72866015Y-53930785D01*
X72962706Y-54010137D01*
X73073020Y-54069102D01*
X73192718Y-54105412D01*
X73201161Y-54106243D01*
X73002563Y-54304841D01*
X72845520Y-54539873D01*
X72737347Y-54801026D01*
X72682200Y-55078265D01*
X72682200Y-55360935D01*
X72737347Y-55638174D01*
X72845520Y-55899327D01*
X73002563Y-56134359D01*
X73202441Y-56334237D01*
X73434959Y-56489600D01*
X73202441Y-56644963D01*
X73002563Y-56844841D01*
X72845520Y-57079873D01*
X72737347Y-57341026D01*
X72682200Y-57618265D01*
X72682200Y-57900935D01*
X72737347Y-58178174D01*
X72845520Y-58439327D01*
X73002563Y-58674359D01*
X73202441Y-58874237D01*
X73434959Y-59029600D01*
X73202441Y-59184963D01*
X73002563Y-59384841D01*
X72845520Y-59619873D01*
X72737347Y-59881026D01*
X72682200Y-60158265D01*
X72682200Y-60440935D01*
X72737347Y-60718174D01*
X72845520Y-60979327D01*
X73002563Y-61214359D01*
X73202441Y-61414237D01*
X73437473Y-61571280D01*
X73698626Y-61679453D01*
X73975865Y-61734600D01*
X74258535Y-61734600D01*
X74535774Y-61679453D01*
X74796927Y-61571280D01*
X75031959Y-61414237D01*
X75231837Y-61214359D01*
X75388880Y-60979327D01*
X75497053Y-60718174D01*
X75552200Y-60440935D01*
X75552200Y-60158265D01*
X75545217Y-60123161D01*
X80303070Y-55365309D01*
X80357347Y-55638174D01*
X80465520Y-55899327D01*
X80622563Y-56134359D01*
X80822441Y-56334237D01*
X81054959Y-56489600D01*
X80822441Y-56644963D01*
X80622563Y-56844841D01*
X80465520Y-57079873D01*
X80357347Y-57341026D01*
X80302200Y-57618265D01*
X80302200Y-57900935D01*
X80357347Y-58178174D01*
X80465520Y-58439327D01*
X80622563Y-58674359D01*
X80822441Y-58874237D01*
X81054959Y-59029600D01*
X80822441Y-59184963D01*
X80622563Y-59384841D01*
X80465520Y-59619873D01*
X80357347Y-59881026D01*
X80302200Y-60158265D01*
X80302200Y-60440935D01*
X80357347Y-60718174D01*
X80465520Y-60979327D01*
X80622563Y-61214359D01*
X80822441Y-61414237D01*
X81057473Y-61571280D01*
X81318626Y-61679453D01*
X81595865Y-61734600D01*
X81878535Y-61734600D01*
X82155774Y-61679453D01*
X82416927Y-61571280D01*
X82651959Y-61414237D01*
X82851837Y-61214359D01*
X83008880Y-60979327D01*
X83117053Y-60718174D01*
X83172200Y-60440935D01*
X83172200Y-60158265D01*
X83137968Y-59986167D01*
X84902800Y-59986167D01*
X84902800Y-60308233D01*
X84965632Y-60624112D01*
X85088882Y-60921663D01*
X85267813Y-61189452D01*
X85495548Y-61417187D01*
X85763337Y-61596118D01*
X86060888Y-61719368D01*
X86376767Y-61782200D01*
X86698833Y-61782200D01*
X87014712Y-61719368D01*
X87312263Y-61596118D01*
X87580052Y-61417187D01*
X87807787Y-61189452D01*
X87986718Y-60921663D01*
X88109968Y-60624112D01*
X88172800Y-60308233D01*
X88172800Y-60138567D01*
X90719400Y-60138567D01*
X90719400Y-60460633D01*
X90782232Y-60776512D01*
X90905482Y-61074063D01*
X91084413Y-61341852D01*
X91312148Y-61569587D01*
X91579937Y-61748518D01*
X91877488Y-61871768D01*
X92193367Y-61934600D01*
X92515433Y-61934600D01*
X92831312Y-61871768D01*
X93128863Y-61748518D01*
X93396652Y-61569587D01*
X93624387Y-61341852D01*
X93803318Y-61074063D01*
X93926568Y-60776512D01*
X93930247Y-60758016D01*
X97321800Y-60758016D01*
X97321800Y-61060384D01*
X97380789Y-61356943D01*
X97496501Y-61636295D01*
X97664488Y-61887705D01*
X97878295Y-62101512D01*
X98129705Y-62269499D01*
X98409057Y-62385211D01*
X98705616Y-62444200D01*
X99007984Y-62444200D01*
X99304543Y-62385211D01*
X99583895Y-62269499D01*
X99835305Y-62101512D01*
X99901744Y-62035073D01*
X99907298Y-62053380D01*
X99966263Y-62163694D01*
X100045615Y-62260385D01*
X100142306Y-62339737D01*
X100252620Y-62398702D01*
X100372318Y-62435012D01*
X100496800Y-62447272D01*
X102296800Y-62447272D01*
X102421282Y-62435012D01*
X102540980Y-62398702D01*
X102651294Y-62339737D01*
X102747985Y-62260385D01*
X102827337Y-62163694D01*
X102886302Y-62053380D01*
X102922612Y-61933682D01*
X102934872Y-61809200D01*
X102934872Y-60009200D01*
X102922612Y-59884718D01*
X102890808Y-59779872D01*
X105765000Y-59779872D01*
X105765000Y-60220128D01*
X105850890Y-60651925D01*
X106019369Y-61058669D01*
X106263962Y-61424729D01*
X106575271Y-61736038D01*
X106941331Y-61980631D01*
X107348075Y-62149110D01*
X107779872Y-62235000D01*
X108220128Y-62235000D01*
X108651925Y-62149110D01*
X109058669Y-61980631D01*
X109424729Y-61736038D01*
X109736038Y-61424729D01*
X109980631Y-61058669D01*
X110149110Y-60651925D01*
X110235000Y-60220128D01*
X110235000Y-59779872D01*
X110149110Y-59348075D01*
X109980631Y-58941331D01*
X109736038Y-58575271D01*
X109424729Y-58263962D01*
X109058669Y-58019369D01*
X108651925Y-57850890D01*
X108220128Y-57765000D01*
X107779872Y-57765000D01*
X107348075Y-57850890D01*
X106941331Y-58019369D01*
X106575271Y-58263962D01*
X106263962Y-58575271D01*
X106019369Y-58941331D01*
X105850890Y-59348075D01*
X105765000Y-59779872D01*
X102890808Y-59779872D01*
X102886302Y-59765020D01*
X102827337Y-59654706D01*
X102747985Y-59558015D01*
X102651294Y-59478663D01*
X102540980Y-59419698D01*
X102421282Y-59383388D01*
X102296800Y-59371128D01*
X100496800Y-59371128D01*
X100372318Y-59383388D01*
X100252620Y-59419698D01*
X100142306Y-59478663D01*
X100045615Y-59558015D01*
X99966263Y-59654706D01*
X99907298Y-59765020D01*
X99901744Y-59783327D01*
X99835305Y-59716888D01*
X99583895Y-59548901D01*
X99304543Y-59433189D01*
X99007984Y-59374200D01*
X98705616Y-59374200D01*
X98409057Y-59433189D01*
X98129705Y-59548901D01*
X97878295Y-59716888D01*
X97664488Y-59930695D01*
X97496501Y-60182105D01*
X97380789Y-60461457D01*
X97321800Y-60758016D01*
X93930247Y-60758016D01*
X93989400Y-60460633D01*
X93989400Y-60138567D01*
X93926568Y-59822688D01*
X93803318Y-59525137D01*
X93624387Y-59257348D01*
X93396652Y-59029613D01*
X93128863Y-58850682D01*
X92831312Y-58727432D01*
X92515433Y-58664600D01*
X92193367Y-58664600D01*
X91877488Y-58727432D01*
X91579937Y-58850682D01*
X91312148Y-59029613D01*
X91084413Y-59257348D01*
X90905482Y-59525137D01*
X90782232Y-59822688D01*
X90719400Y-60138567D01*
X88172800Y-60138567D01*
X88172800Y-59986167D01*
X88109968Y-59670288D01*
X87986718Y-59372737D01*
X87807787Y-59104948D01*
X87580052Y-58877213D01*
X87312263Y-58698282D01*
X87014712Y-58575032D01*
X86698833Y-58512200D01*
X86376767Y-58512200D01*
X86060888Y-58575032D01*
X85763337Y-58698282D01*
X85495548Y-58877213D01*
X85267813Y-59104948D01*
X85088882Y-59372737D01*
X84965632Y-59670288D01*
X84902800Y-59986167D01*
X83137968Y-59986167D01*
X83117053Y-59881026D01*
X83008880Y-59619873D01*
X82851837Y-59384841D01*
X82651959Y-59184963D01*
X82419441Y-59029600D01*
X82651959Y-58874237D01*
X82851837Y-58674359D01*
X82955243Y-58519600D01*
X85205078Y-58519600D01*
X85242400Y-58523276D01*
X85279722Y-58519600D01*
X85279733Y-58519600D01*
X85391386Y-58508603D01*
X85534647Y-58465146D01*
X85666676Y-58394574D01*
X85782401Y-58299601D01*
X85806204Y-58270597D01*
X86290114Y-57786688D01*
X86472665Y-57823000D01*
X86755335Y-57823000D01*
X87032574Y-57767853D01*
X87293727Y-57659680D01*
X87528759Y-57502637D01*
X87728637Y-57302759D01*
X87832043Y-57148000D01*
X91110957Y-57148000D01*
X91214363Y-57302759D01*
X91414241Y-57502637D01*
X91649273Y-57659680D01*
X91910426Y-57767853D01*
X92187665Y-57823000D01*
X92470335Y-57823000D01*
X92747574Y-57767853D01*
X93008727Y-57659680D01*
X93243759Y-57502637D01*
X93443637Y-57302759D01*
X93600680Y-57067727D01*
X93708853Y-56806574D01*
X93764000Y-56529335D01*
X93764000Y-56246665D01*
X93713476Y-55992665D01*
X96037500Y-55992665D01*
X96037500Y-56275335D01*
X96092647Y-56552574D01*
X96200820Y-56813727D01*
X96357863Y-57048759D01*
X96557741Y-57248637D01*
X96792773Y-57405680D01*
X97053926Y-57513853D01*
X97331165Y-57569000D01*
X97613835Y-57569000D01*
X97891074Y-57513853D01*
X98152227Y-57405680D01*
X98387259Y-57248637D01*
X98587137Y-57048759D01*
X98744180Y-56813727D01*
X98852353Y-56552574D01*
X98907500Y-56275335D01*
X98907500Y-55992665D01*
X98852353Y-55715426D01*
X98744180Y-55454273D01*
X98587137Y-55219241D01*
X98387259Y-55019363D01*
X98152227Y-54862320D01*
X97891074Y-54754147D01*
X97613835Y-54699000D01*
X97331165Y-54699000D01*
X97053926Y-54754147D01*
X96792773Y-54862320D01*
X96557741Y-55019363D01*
X96357863Y-55219241D01*
X96200820Y-55454273D01*
X96092647Y-55715426D01*
X96037500Y-55992665D01*
X93713476Y-55992665D01*
X93708853Y-55969426D01*
X93600680Y-55708273D01*
X93443637Y-55473241D01*
X93243759Y-55273363D01*
X93008727Y-55116320D01*
X92747574Y-55008147D01*
X92470335Y-54953000D01*
X92187665Y-54953000D01*
X91910426Y-55008147D01*
X91649273Y-55116320D01*
X91414241Y-55273363D01*
X91214363Y-55473241D01*
X91110957Y-55628000D01*
X87832043Y-55628000D01*
X87728637Y-55473241D01*
X87528759Y-55273363D01*
X87293727Y-55116320D01*
X87032574Y-55008147D01*
X86755335Y-54953000D01*
X86472665Y-54953000D01*
X86195426Y-55008147D01*
X85934273Y-55116320D01*
X85699241Y-55273363D01*
X85499363Y-55473241D01*
X85342320Y-55708273D01*
X85234147Y-55969426D01*
X85179000Y-56246665D01*
X85179000Y-56529335D01*
X85215312Y-56711886D01*
X84927599Y-56999600D01*
X82955243Y-56999600D01*
X82851837Y-56844841D01*
X82651959Y-56644963D01*
X82419441Y-56489600D01*
X82651959Y-56334237D01*
X82851837Y-56134359D01*
X83008880Y-55899327D01*
X83117053Y-55638174D01*
X83172200Y-55360935D01*
X83172200Y-55078265D01*
X83117053Y-54801026D01*
X83008880Y-54539873D01*
X82851837Y-54304841D01*
X82651959Y-54104963D01*
X82419441Y-53949600D01*
X82651959Y-53794237D01*
X82851837Y-53594359D01*
X83008880Y-53359327D01*
X83117053Y-53098174D01*
X83172200Y-52820935D01*
X83172200Y-52794000D01*
X102574928Y-52794000D01*
X102574928Y-54394000D01*
X102587188Y-54518482D01*
X102623498Y-54638180D01*
X102682463Y-54748494D01*
X102761815Y-54845185D01*
X102858506Y-54924537D01*
X102968820Y-54983502D01*
X103088518Y-55019812D01*
X103213000Y-55032072D01*
X104813000Y-55032072D01*
X104937482Y-55019812D01*
X105057180Y-54983502D01*
X105167494Y-54924537D01*
X105264185Y-54845185D01*
X105343537Y-54748494D01*
X105402502Y-54638180D01*
X105438812Y-54518482D01*
X105451072Y-54394000D01*
X105451072Y-52794000D01*
X105438812Y-52669518D01*
X105402502Y-52549820D01*
X105343537Y-52439506D01*
X105325040Y-52416967D01*
X108601000Y-52416967D01*
X108601000Y-52739033D01*
X108663832Y-53054912D01*
X108787082Y-53352463D01*
X108966013Y-53620252D01*
X109193748Y-53847987D01*
X109461537Y-54026918D01*
X109759088Y-54150168D01*
X110074967Y-54213000D01*
X110397033Y-54213000D01*
X110712912Y-54150168D01*
X111010463Y-54026918D01*
X111278252Y-53847987D01*
X111505987Y-53620252D01*
X111684918Y-53352463D01*
X111808168Y-53054912D01*
X111871000Y-52739033D01*
X111871000Y-52416967D01*
X111808168Y-52101088D01*
X111684918Y-51803537D01*
X111505987Y-51535748D01*
X111278252Y-51308013D01*
X111010463Y-51129082D01*
X110712912Y-51005832D01*
X110397033Y-50943000D01*
X110074967Y-50943000D01*
X109759088Y-51005832D01*
X109461537Y-51129082D01*
X109193748Y-51308013D01*
X108966013Y-51535748D01*
X108787082Y-51803537D01*
X108663832Y-52101088D01*
X108601000Y-52416967D01*
X105325040Y-52416967D01*
X105264185Y-52342815D01*
X105167494Y-52263463D01*
X105057180Y-52204498D01*
X104937482Y-52168188D01*
X104813000Y-52155928D01*
X104805785Y-52155928D01*
X104826097Y-52086702D01*
X104013000Y-51273605D01*
X103199903Y-52086702D01*
X103220215Y-52155928D01*
X103213000Y-52155928D01*
X103088518Y-52168188D01*
X102968820Y-52204498D01*
X102858506Y-52263463D01*
X102761815Y-52342815D01*
X102682463Y-52439506D01*
X102623498Y-52549820D01*
X102587188Y-52669518D01*
X102574928Y-52794000D01*
X83172200Y-52794000D01*
X83172200Y-52538265D01*
X83117053Y-52261026D01*
X83008880Y-51999873D01*
X82851837Y-51764841D01*
X82651959Y-51564963D01*
X82416927Y-51407920D01*
X82155774Y-51299747D01*
X81878535Y-51244600D01*
X81595865Y-51244600D01*
X81318626Y-51299747D01*
X81057473Y-51407920D01*
X80822441Y-51564963D01*
X80622563Y-51764841D01*
X80465520Y-51999873D01*
X80357347Y-52261026D01*
X80302200Y-52538265D01*
X80302200Y-52820935D01*
X80309183Y-52856038D01*
X75551330Y-57613892D01*
X75497053Y-57341026D01*
X75388880Y-57079873D01*
X75231837Y-56844841D01*
X75031959Y-56644963D01*
X74799441Y-56489600D01*
X75031959Y-56334237D01*
X75231837Y-56134359D01*
X75388880Y-55899327D01*
X75497053Y-55638174D01*
X75552200Y-55360935D01*
X75552200Y-55078265D01*
X75497053Y-54801026D01*
X75388880Y-54539873D01*
X75231837Y-54304841D01*
X75033239Y-54106243D01*
X75041682Y-54105412D01*
X75161380Y-54069102D01*
X75271694Y-54010137D01*
X75368385Y-53930785D01*
X75447737Y-53834094D01*
X75506702Y-53723780D01*
X75543012Y-53604082D01*
X75555272Y-53479600D01*
X75552200Y-52965350D01*
X75393450Y-52806600D01*
X74244200Y-52806600D01*
X74244200Y-52826600D01*
X73990200Y-52826600D01*
X73990200Y-52806600D01*
X72840950Y-52806600D01*
X72682200Y-52965350D01*
X72679128Y-53479600D01*
X61660000Y-53479600D01*
X61660000Y-51879600D01*
X72679128Y-51879600D01*
X72682200Y-52393850D01*
X72840950Y-52552600D01*
X73990200Y-52552600D01*
X73990200Y-51403350D01*
X74244200Y-51403350D01*
X74244200Y-52552600D01*
X75393450Y-52552600D01*
X75552200Y-52393850D01*
X75555272Y-51879600D01*
X75543012Y-51755118D01*
X75506702Y-51635420D01*
X75447737Y-51525106D01*
X75368385Y-51428415D01*
X75271694Y-51349063D01*
X75161380Y-51290098D01*
X75041682Y-51253788D01*
X74917200Y-51241528D01*
X74402950Y-51244600D01*
X74244200Y-51403350D01*
X73990200Y-51403350D01*
X73831450Y-51244600D01*
X73317200Y-51241528D01*
X73192718Y-51253788D01*
X73073020Y-51290098D01*
X72962706Y-51349063D01*
X72866015Y-51428415D01*
X72786663Y-51525106D01*
X72727698Y-51635420D01*
X72691388Y-51755118D01*
X72679128Y-51879600D01*
X61660000Y-51879600D01*
X61660000Y-51164512D01*
X102572783Y-51164512D01*
X102614213Y-51444130D01*
X102709397Y-51710292D01*
X102776329Y-51835514D01*
X103020298Y-51907097D01*
X103833395Y-51094000D01*
X104192605Y-51094000D01*
X105005702Y-51907097D01*
X105249671Y-51835514D01*
X105370571Y-51580004D01*
X105439300Y-51305816D01*
X105453217Y-51023488D01*
X105411787Y-50743870D01*
X105316603Y-50477708D01*
X105249671Y-50352486D01*
X105005702Y-50280903D01*
X104192605Y-51094000D01*
X103833395Y-51094000D01*
X103020298Y-50280903D01*
X102776329Y-50352486D01*
X102655429Y-50607996D01*
X102586700Y-50882184D01*
X102572783Y-51164512D01*
X61660000Y-51164512D01*
X61660000Y-48617702D01*
X76000303Y-48617702D01*
X76071886Y-48861671D01*
X76327396Y-48982571D01*
X76601584Y-49051300D01*
X76883912Y-49065217D01*
X77163530Y-49023787D01*
X77429692Y-48928603D01*
X77554914Y-48861671D01*
X77626497Y-48617702D01*
X76813400Y-47804605D01*
X76000303Y-48617702D01*
X61660000Y-48617702D01*
X61660000Y-47695512D01*
X75373183Y-47695512D01*
X75414613Y-47975130D01*
X75509797Y-48241292D01*
X75576729Y-48366514D01*
X75820698Y-48438097D01*
X76633795Y-47625000D01*
X76993005Y-47625000D01*
X77806102Y-48438097D01*
X78050071Y-48366514D01*
X78170971Y-48111004D01*
X78239700Y-47836816D01*
X78253617Y-47554488D01*
X78243124Y-47483665D01*
X80378400Y-47483665D01*
X80378400Y-47766335D01*
X80433547Y-48043574D01*
X80541720Y-48304727D01*
X80698763Y-48539759D01*
X80898641Y-48739637D01*
X81133673Y-48896680D01*
X81394826Y-49004853D01*
X81672065Y-49060000D01*
X81954735Y-49060000D01*
X82231974Y-49004853D01*
X82493127Y-48896680D01*
X82728159Y-48739637D01*
X82841131Y-48626665D01*
X85179000Y-48626665D01*
X85179000Y-48909335D01*
X85234147Y-49186574D01*
X85342320Y-49447727D01*
X85499363Y-49682759D01*
X85699241Y-49882637D01*
X85934273Y-50039680D01*
X86195426Y-50147853D01*
X86472665Y-50203000D01*
X86755335Y-50203000D01*
X87032574Y-50147853D01*
X87293727Y-50039680D01*
X87528759Y-49882637D01*
X87728637Y-49682759D01*
X87885680Y-49447727D01*
X87993853Y-49186574D01*
X88049000Y-48909335D01*
X88049000Y-48626665D01*
X87993853Y-48349426D01*
X87885680Y-48088273D01*
X87805317Y-47968000D01*
X90890928Y-47968000D01*
X90890928Y-49568000D01*
X90903188Y-49692482D01*
X90939498Y-49812180D01*
X90998463Y-49922494D01*
X91077815Y-50019185D01*
X91174506Y-50098537D01*
X91284820Y-50157502D01*
X91404518Y-50193812D01*
X91529000Y-50206072D01*
X93129000Y-50206072D01*
X93253482Y-50193812D01*
X93373180Y-50157502D01*
X93478328Y-50101298D01*
X103199903Y-50101298D01*
X104013000Y-50914395D01*
X104826097Y-50101298D01*
X104754514Y-49857329D01*
X104499004Y-49736429D01*
X104224816Y-49667700D01*
X103942488Y-49653783D01*
X103662870Y-49695213D01*
X103396708Y-49790397D01*
X103271486Y-49857329D01*
X103199903Y-50101298D01*
X93478328Y-50101298D01*
X93483494Y-50098537D01*
X93580185Y-50019185D01*
X93659537Y-49922494D01*
X93718502Y-49812180D01*
X93754812Y-49692482D01*
X93767072Y-49568000D01*
X93767072Y-48863040D01*
X96080591Y-48863040D01*
X96175430Y-49127881D01*
X96320115Y-49369131D01*
X96509086Y-49577519D01*
X96735080Y-49745037D01*
X96989413Y-49865246D01*
X97123461Y-49905904D01*
X97345500Y-49783915D01*
X97345500Y-48641000D01*
X97599500Y-48641000D01*
X97599500Y-49783915D01*
X97821539Y-49905904D01*
X97955587Y-49865246D01*
X98209920Y-49745037D01*
X98435914Y-49577519D01*
X98624885Y-49369131D01*
X98769570Y-49127881D01*
X98864409Y-48863040D01*
X98743124Y-48641000D01*
X97599500Y-48641000D01*
X97345500Y-48641000D01*
X96201876Y-48641000D01*
X96080591Y-48863040D01*
X93767072Y-48863040D01*
X93767072Y-48164960D01*
X96080591Y-48164960D01*
X96201876Y-48387000D01*
X97345500Y-48387000D01*
X97345500Y-47244085D01*
X97599500Y-47244085D01*
X97599500Y-48387000D01*
X98743124Y-48387000D01*
X98864409Y-48164960D01*
X98769570Y-47900119D01*
X98624885Y-47658869D01*
X98435914Y-47450481D01*
X98209920Y-47282963D01*
X97955587Y-47162754D01*
X97821539Y-47122096D01*
X97599500Y-47244085D01*
X97345500Y-47244085D01*
X97123461Y-47122096D01*
X96989413Y-47162754D01*
X96735080Y-47282963D01*
X96509086Y-47450481D01*
X96320115Y-47658869D01*
X96175430Y-47900119D01*
X96080591Y-48164960D01*
X93767072Y-48164960D01*
X93767072Y-47968000D01*
X93754812Y-47843518D01*
X93718502Y-47723820D01*
X93659537Y-47613506D01*
X93580185Y-47516815D01*
X93483494Y-47437463D01*
X93373180Y-47378498D01*
X93253482Y-47342188D01*
X93129000Y-47329928D01*
X91529000Y-47329928D01*
X91404518Y-47342188D01*
X91284820Y-47378498D01*
X91174506Y-47437463D01*
X91077815Y-47516815D01*
X90998463Y-47613506D01*
X90939498Y-47723820D01*
X90903188Y-47843518D01*
X90890928Y-47968000D01*
X87805317Y-47968000D01*
X87728637Y-47853241D01*
X87528759Y-47653363D01*
X87293727Y-47496320D01*
X87032574Y-47388147D01*
X86755335Y-47333000D01*
X86472665Y-47333000D01*
X86195426Y-47388147D01*
X85934273Y-47496320D01*
X85699241Y-47653363D01*
X85499363Y-47853241D01*
X85342320Y-48088273D01*
X85234147Y-48349426D01*
X85179000Y-48626665D01*
X82841131Y-48626665D01*
X82928037Y-48539759D01*
X83085080Y-48304727D01*
X83193253Y-48043574D01*
X83248400Y-47766335D01*
X83248400Y-47483665D01*
X83193253Y-47206426D01*
X83085080Y-46945273D01*
X82928037Y-46710241D01*
X82728159Y-46510363D01*
X82493127Y-46353320D01*
X82231974Y-46245147D01*
X81954735Y-46190000D01*
X81672065Y-46190000D01*
X81394826Y-46245147D01*
X81133673Y-46353320D01*
X80898641Y-46510363D01*
X80698763Y-46710241D01*
X80541720Y-46945273D01*
X80433547Y-47206426D01*
X80378400Y-47483665D01*
X78243124Y-47483665D01*
X78212187Y-47274870D01*
X78117003Y-47008708D01*
X78050071Y-46883486D01*
X77806102Y-46811903D01*
X76993005Y-47625000D01*
X76633795Y-47625000D01*
X75820698Y-46811903D01*
X75576729Y-46883486D01*
X75455829Y-47138996D01*
X75387100Y-47413184D01*
X75373183Y-47695512D01*
X61660000Y-47695512D01*
X61660000Y-44779872D01*
X63765000Y-44779872D01*
X63765000Y-45220128D01*
X63850890Y-45651925D01*
X64019369Y-46058669D01*
X64263962Y-46424729D01*
X64575271Y-46736038D01*
X64941331Y-46980631D01*
X65348075Y-47149110D01*
X65779872Y-47235000D01*
X66220128Y-47235000D01*
X66651925Y-47149110D01*
X67058669Y-46980631D01*
X67424729Y-46736038D01*
X67528469Y-46632298D01*
X76000303Y-46632298D01*
X76813400Y-47445395D01*
X77626497Y-46632298D01*
X77554914Y-46388329D01*
X77299404Y-46267429D01*
X77025216Y-46198700D01*
X76742888Y-46184783D01*
X76463270Y-46226213D01*
X76197108Y-46321397D01*
X76071886Y-46388329D01*
X76000303Y-46632298D01*
X67528469Y-46632298D01*
X67736038Y-46424729D01*
X67980631Y-46058669D01*
X68149110Y-45651925D01*
X68235000Y-45220128D01*
X68235000Y-44779872D01*
X68167876Y-44442413D01*
X87436192Y-44442413D01*
X87531956Y-44706814D01*
X87821571Y-44847704D01*
X88133108Y-44929384D01*
X88454595Y-44948718D01*
X88773675Y-44904961D01*
X89078088Y-44799795D01*
X89252044Y-44706814D01*
X89347808Y-44442413D01*
X89284308Y-44378913D01*
X93786192Y-44378913D01*
X93881956Y-44643314D01*
X94171571Y-44784204D01*
X94483108Y-44865884D01*
X94804595Y-44885218D01*
X95123675Y-44841461D01*
X95428088Y-44736295D01*
X95602044Y-44643314D01*
X95628810Y-44569413D01*
X99882192Y-44569413D01*
X99977956Y-44833814D01*
X100267571Y-44974704D01*
X100579108Y-45056384D01*
X100900595Y-45075718D01*
X101219675Y-45031961D01*
X101524088Y-44926795D01*
X101698044Y-44833814D01*
X101717581Y-44779872D01*
X105765000Y-44779872D01*
X105765000Y-45220128D01*
X105850890Y-45651925D01*
X106019369Y-46058669D01*
X106263962Y-46424729D01*
X106575271Y-46736038D01*
X106941331Y-46980631D01*
X107348075Y-47149110D01*
X107779872Y-47235000D01*
X108220128Y-47235000D01*
X108651925Y-47149110D01*
X109058669Y-46980631D01*
X109424729Y-46736038D01*
X109736038Y-46424729D01*
X109980631Y-46058669D01*
X110149110Y-45651925D01*
X110235000Y-45220128D01*
X110235000Y-44779872D01*
X110149110Y-44348075D01*
X109980631Y-43941331D01*
X109736038Y-43575271D01*
X109424729Y-43263962D01*
X109058669Y-43019369D01*
X108651925Y-42850890D01*
X108220128Y-42765000D01*
X107779872Y-42765000D01*
X107348075Y-42850890D01*
X106941331Y-43019369D01*
X106575271Y-43263962D01*
X106263962Y-43575271D01*
X106019369Y-43941331D01*
X105850890Y-44348075D01*
X105765000Y-44779872D01*
X101717581Y-44779872D01*
X101793808Y-44569413D01*
X100838000Y-43613605D01*
X99882192Y-44569413D01*
X95628810Y-44569413D01*
X95697808Y-44378913D01*
X94742000Y-43423105D01*
X93786192Y-44378913D01*
X89284308Y-44378913D01*
X88392000Y-43486605D01*
X87436192Y-44442413D01*
X68167876Y-44442413D01*
X68149110Y-44348075D01*
X67980631Y-43941331D01*
X67736038Y-43575271D01*
X67424729Y-43263962D01*
X67339017Y-43206691D01*
X76587319Y-43206691D01*
X76684643Y-43481052D01*
X76833622Y-43731155D01*
X77028531Y-43947388D01*
X77261880Y-44121441D01*
X77524701Y-44246625D01*
X77671910Y-44291276D01*
X77901800Y-44169955D01*
X77901800Y-42976800D01*
X76707986Y-42976800D01*
X76587319Y-43206691D01*
X67339017Y-43206691D01*
X67058669Y-43019369D01*
X66651925Y-42850890D01*
X66220128Y-42765000D01*
X65779872Y-42765000D01*
X65348075Y-42850890D01*
X64941331Y-43019369D01*
X64575271Y-43263962D01*
X64263962Y-43575271D01*
X64019369Y-43941331D01*
X63850890Y-44348075D01*
X63765000Y-44779872D01*
X61660000Y-44779872D01*
X61660000Y-42492909D01*
X76587319Y-42492909D01*
X76707986Y-42722800D01*
X77901800Y-42722800D01*
X77901800Y-41529645D01*
X78155800Y-41529645D01*
X78155800Y-42722800D01*
X78175800Y-42722800D01*
X78175800Y-42976800D01*
X78155800Y-42976800D01*
X78155800Y-44169955D01*
X78385690Y-44291276D01*
X78532899Y-44246625D01*
X78795720Y-44121441D01*
X79029069Y-43947388D01*
X79104834Y-43863334D01*
X79129298Y-43943980D01*
X79188263Y-44054294D01*
X79267615Y-44150985D01*
X79364306Y-44230337D01*
X79474620Y-44289302D01*
X79594318Y-44325612D01*
X79718800Y-44337872D01*
X81418800Y-44337872D01*
X81543282Y-44325612D01*
X81662980Y-44289302D01*
X81773294Y-44230337D01*
X81869985Y-44150985D01*
X81949337Y-44054294D01*
X82008302Y-43943980D01*
X82044612Y-43824282D01*
X82056872Y-43699800D01*
X82056872Y-43369595D01*
X86750282Y-43369595D01*
X86794039Y-43688675D01*
X86899205Y-43993088D01*
X86992186Y-44167044D01*
X87256587Y-44262808D01*
X88212395Y-43307000D01*
X88571605Y-43307000D01*
X89527413Y-44262808D01*
X89791814Y-44167044D01*
X89932704Y-43877429D01*
X90014384Y-43565892D01*
X90030008Y-43306095D01*
X93100282Y-43306095D01*
X93144039Y-43625175D01*
X93249205Y-43929588D01*
X93342186Y-44103544D01*
X93606587Y-44199308D01*
X94562395Y-43243500D01*
X94921605Y-43243500D01*
X95877413Y-44199308D01*
X96141814Y-44103544D01*
X96282704Y-43813929D01*
X96364384Y-43502392D01*
X96364732Y-43496595D01*
X99196282Y-43496595D01*
X99240039Y-43815675D01*
X99345205Y-44120088D01*
X99438186Y-44294044D01*
X99702587Y-44389808D01*
X100658395Y-43434000D01*
X101017605Y-43434000D01*
X101973413Y-44389808D01*
X102237814Y-44294044D01*
X102378704Y-44004429D01*
X102460384Y-43692892D01*
X102479718Y-43371405D01*
X102435961Y-43052325D01*
X102330795Y-42747912D01*
X102237814Y-42573956D01*
X101973413Y-42478192D01*
X101017605Y-43434000D01*
X100658395Y-43434000D01*
X99702587Y-42478192D01*
X99438186Y-42573956D01*
X99297296Y-42863571D01*
X99215616Y-43175108D01*
X99196282Y-43496595D01*
X96364732Y-43496595D01*
X96383718Y-43180905D01*
X96339961Y-42861825D01*
X96234795Y-42557412D01*
X96141814Y-42383456D01*
X95907494Y-42298587D01*
X99882192Y-42298587D01*
X100838000Y-43254395D01*
X101793808Y-42298587D01*
X101698044Y-42034186D01*
X101408429Y-41893296D01*
X101096892Y-41811616D01*
X100775405Y-41792282D01*
X100456325Y-41836039D01*
X100151912Y-41941205D01*
X99977956Y-42034186D01*
X99882192Y-42298587D01*
X95907494Y-42298587D01*
X95877413Y-42287692D01*
X94921605Y-43243500D01*
X94562395Y-43243500D01*
X93606587Y-42287692D01*
X93342186Y-42383456D01*
X93201296Y-42673071D01*
X93119616Y-42984608D01*
X93100282Y-43306095D01*
X90030008Y-43306095D01*
X90033718Y-43244405D01*
X89989961Y-42925325D01*
X89884795Y-42620912D01*
X89791814Y-42446956D01*
X89527413Y-42351192D01*
X88571605Y-43307000D01*
X88212395Y-43307000D01*
X87256587Y-42351192D01*
X86992186Y-42446956D01*
X86851296Y-42736571D01*
X86769616Y-43048108D01*
X86750282Y-43369595D01*
X82056872Y-43369595D01*
X82056872Y-42171587D01*
X87436192Y-42171587D01*
X88392000Y-43127395D01*
X89347808Y-42171587D01*
X89324809Y-42108087D01*
X93786192Y-42108087D01*
X94742000Y-43063895D01*
X95697808Y-42108087D01*
X95602044Y-41843686D01*
X95312429Y-41702796D01*
X95000892Y-41621116D01*
X94679405Y-41601782D01*
X94360325Y-41645539D01*
X94055912Y-41750705D01*
X93881956Y-41843686D01*
X93786192Y-42108087D01*
X89324809Y-42108087D01*
X89252044Y-41907186D01*
X88962429Y-41766296D01*
X88650892Y-41684616D01*
X88329405Y-41665282D01*
X88010325Y-41709039D01*
X87705912Y-41814205D01*
X87531956Y-41907186D01*
X87436192Y-42171587D01*
X82056872Y-42171587D01*
X82056872Y-41999800D01*
X82044612Y-41875318D01*
X82008302Y-41755620D01*
X81949337Y-41645306D01*
X81869985Y-41548615D01*
X81773294Y-41469263D01*
X81662980Y-41410298D01*
X81543282Y-41373988D01*
X81418800Y-41361728D01*
X79718800Y-41361728D01*
X79594318Y-41373988D01*
X79474620Y-41410298D01*
X79364306Y-41469263D01*
X79267615Y-41548615D01*
X79188263Y-41645306D01*
X79129298Y-41755620D01*
X79104834Y-41836266D01*
X79029069Y-41752212D01*
X78795720Y-41578159D01*
X78532899Y-41452975D01*
X78385690Y-41408324D01*
X78155800Y-41529645D01*
X77901800Y-41529645D01*
X77671910Y-41408324D01*
X77524701Y-41452975D01*
X77261880Y-41578159D01*
X77028531Y-41752212D01*
X76833622Y-41968445D01*
X76684643Y-42218548D01*
X76587319Y-42492909D01*
X61660000Y-42492909D01*
X61660000Y-40660000D01*
X112340000Y-40660000D01*
X112340001Y-64340000D01*
%TA.AperFunction,Conductor*%
D21*
G36*
X112340001Y-64340000D02*
G01*
X61660000Y-64340000D01*
X61660000Y-59779872D01*
X63765000Y-59779872D01*
X63765000Y-60220128D01*
X63850890Y-60651925D01*
X64019369Y-61058669D01*
X64263962Y-61424729D01*
X64575271Y-61736038D01*
X64941331Y-61980631D01*
X65348075Y-62149110D01*
X65779872Y-62235000D01*
X66220128Y-62235000D01*
X66651925Y-62149110D01*
X67058669Y-61980631D01*
X67424729Y-61736038D01*
X67736038Y-61424729D01*
X67980631Y-61058669D01*
X68149110Y-60651925D01*
X68235000Y-60220128D01*
X68235000Y-59779872D01*
X68149110Y-59348075D01*
X67980631Y-58941331D01*
X67736038Y-58575271D01*
X67424729Y-58263962D01*
X67058669Y-58019369D01*
X66651925Y-57850890D01*
X66220128Y-57765000D01*
X65779872Y-57765000D01*
X65348075Y-57850890D01*
X64941331Y-58019369D01*
X64575271Y-58263962D01*
X64263962Y-58575271D01*
X64019369Y-58941331D01*
X63850890Y-59348075D01*
X63765000Y-59779872D01*
X61660000Y-59779872D01*
X61660000Y-53479600D01*
X72679128Y-53479600D01*
X72691388Y-53604082D01*
X72727698Y-53723780D01*
X72786663Y-53834094D01*
X72866015Y-53930785D01*
X72962706Y-54010137D01*
X73073020Y-54069102D01*
X73192718Y-54105412D01*
X73201161Y-54106243D01*
X73002563Y-54304841D01*
X72845520Y-54539873D01*
X72737347Y-54801026D01*
X72682200Y-55078265D01*
X72682200Y-55360935D01*
X72737347Y-55638174D01*
X72845520Y-55899327D01*
X73002563Y-56134359D01*
X73202441Y-56334237D01*
X73434959Y-56489600D01*
X73202441Y-56644963D01*
X73002563Y-56844841D01*
X72845520Y-57079873D01*
X72737347Y-57341026D01*
X72682200Y-57618265D01*
X72682200Y-57900935D01*
X72737347Y-58178174D01*
X72845520Y-58439327D01*
X73002563Y-58674359D01*
X73202441Y-58874237D01*
X73434959Y-59029600D01*
X73202441Y-59184963D01*
X73002563Y-59384841D01*
X72845520Y-59619873D01*
X72737347Y-59881026D01*
X72682200Y-60158265D01*
X72682200Y-60440935D01*
X72737347Y-60718174D01*
X72845520Y-60979327D01*
X73002563Y-61214359D01*
X73202441Y-61414237D01*
X73437473Y-61571280D01*
X73698626Y-61679453D01*
X73975865Y-61734600D01*
X74258535Y-61734600D01*
X74535774Y-61679453D01*
X74796927Y-61571280D01*
X75031959Y-61414237D01*
X75231837Y-61214359D01*
X75388880Y-60979327D01*
X75497053Y-60718174D01*
X75552200Y-60440935D01*
X75552200Y-60158265D01*
X75545217Y-60123161D01*
X80303070Y-55365309D01*
X80357347Y-55638174D01*
X80465520Y-55899327D01*
X80622563Y-56134359D01*
X80822441Y-56334237D01*
X81054959Y-56489600D01*
X80822441Y-56644963D01*
X80622563Y-56844841D01*
X80465520Y-57079873D01*
X80357347Y-57341026D01*
X80302200Y-57618265D01*
X80302200Y-57900935D01*
X80357347Y-58178174D01*
X80465520Y-58439327D01*
X80622563Y-58674359D01*
X80822441Y-58874237D01*
X81054959Y-59029600D01*
X80822441Y-59184963D01*
X80622563Y-59384841D01*
X80465520Y-59619873D01*
X80357347Y-59881026D01*
X80302200Y-60158265D01*
X80302200Y-60440935D01*
X80357347Y-60718174D01*
X80465520Y-60979327D01*
X80622563Y-61214359D01*
X80822441Y-61414237D01*
X81057473Y-61571280D01*
X81318626Y-61679453D01*
X81595865Y-61734600D01*
X81878535Y-61734600D01*
X82155774Y-61679453D01*
X82416927Y-61571280D01*
X82651959Y-61414237D01*
X82851837Y-61214359D01*
X83008880Y-60979327D01*
X83117053Y-60718174D01*
X83172200Y-60440935D01*
X83172200Y-60158265D01*
X83137968Y-59986167D01*
X84902800Y-59986167D01*
X84902800Y-60308233D01*
X84965632Y-60624112D01*
X85088882Y-60921663D01*
X85267813Y-61189452D01*
X85495548Y-61417187D01*
X85763337Y-61596118D01*
X86060888Y-61719368D01*
X86376767Y-61782200D01*
X86698833Y-61782200D01*
X87014712Y-61719368D01*
X87312263Y-61596118D01*
X87580052Y-61417187D01*
X87807787Y-61189452D01*
X87986718Y-60921663D01*
X88109968Y-60624112D01*
X88172800Y-60308233D01*
X88172800Y-60138567D01*
X90719400Y-60138567D01*
X90719400Y-60460633D01*
X90782232Y-60776512D01*
X90905482Y-61074063D01*
X91084413Y-61341852D01*
X91312148Y-61569587D01*
X91579937Y-61748518D01*
X91877488Y-61871768D01*
X92193367Y-61934600D01*
X92515433Y-61934600D01*
X92831312Y-61871768D01*
X93128863Y-61748518D01*
X93396652Y-61569587D01*
X93624387Y-61341852D01*
X93803318Y-61074063D01*
X93926568Y-60776512D01*
X93930247Y-60758016D01*
X97321800Y-60758016D01*
X97321800Y-61060384D01*
X97380789Y-61356943D01*
X97496501Y-61636295D01*
X97664488Y-61887705D01*
X97878295Y-62101512D01*
X98129705Y-62269499D01*
X98409057Y-62385211D01*
X98705616Y-62444200D01*
X99007984Y-62444200D01*
X99304543Y-62385211D01*
X99583895Y-62269499D01*
X99835305Y-62101512D01*
X99901744Y-62035073D01*
X99907298Y-62053380D01*
X99966263Y-62163694D01*
X100045615Y-62260385D01*
X100142306Y-62339737D01*
X100252620Y-62398702D01*
X100372318Y-62435012D01*
X100496800Y-62447272D01*
X102296800Y-62447272D01*
X102421282Y-62435012D01*
X102540980Y-62398702D01*
X102651294Y-62339737D01*
X102747985Y-62260385D01*
X102827337Y-62163694D01*
X102886302Y-62053380D01*
X102922612Y-61933682D01*
X102934872Y-61809200D01*
X102934872Y-60009200D01*
X102922612Y-59884718D01*
X102890808Y-59779872D01*
X105765000Y-59779872D01*
X105765000Y-60220128D01*
X105850890Y-60651925D01*
X106019369Y-61058669D01*
X106263962Y-61424729D01*
X106575271Y-61736038D01*
X106941331Y-61980631D01*
X107348075Y-62149110D01*
X107779872Y-62235000D01*
X108220128Y-62235000D01*
X108651925Y-62149110D01*
X109058669Y-61980631D01*
X109424729Y-61736038D01*
X109736038Y-61424729D01*
X109980631Y-61058669D01*
X110149110Y-60651925D01*
X110235000Y-60220128D01*
X110235000Y-59779872D01*
X110149110Y-59348075D01*
X109980631Y-58941331D01*
X109736038Y-58575271D01*
X109424729Y-58263962D01*
X109058669Y-58019369D01*
X108651925Y-57850890D01*
X108220128Y-57765000D01*
X107779872Y-57765000D01*
X107348075Y-57850890D01*
X106941331Y-58019369D01*
X106575271Y-58263962D01*
X106263962Y-58575271D01*
X106019369Y-58941331D01*
X105850890Y-59348075D01*
X105765000Y-59779872D01*
X102890808Y-59779872D01*
X102886302Y-59765020D01*
X102827337Y-59654706D01*
X102747985Y-59558015D01*
X102651294Y-59478663D01*
X102540980Y-59419698D01*
X102421282Y-59383388D01*
X102296800Y-59371128D01*
X100496800Y-59371128D01*
X100372318Y-59383388D01*
X100252620Y-59419698D01*
X100142306Y-59478663D01*
X100045615Y-59558015D01*
X99966263Y-59654706D01*
X99907298Y-59765020D01*
X99901744Y-59783327D01*
X99835305Y-59716888D01*
X99583895Y-59548901D01*
X99304543Y-59433189D01*
X99007984Y-59374200D01*
X98705616Y-59374200D01*
X98409057Y-59433189D01*
X98129705Y-59548901D01*
X97878295Y-59716888D01*
X97664488Y-59930695D01*
X97496501Y-60182105D01*
X97380789Y-60461457D01*
X97321800Y-60758016D01*
X93930247Y-60758016D01*
X93989400Y-60460633D01*
X93989400Y-60138567D01*
X93926568Y-59822688D01*
X93803318Y-59525137D01*
X93624387Y-59257348D01*
X93396652Y-59029613D01*
X93128863Y-58850682D01*
X92831312Y-58727432D01*
X92515433Y-58664600D01*
X92193367Y-58664600D01*
X91877488Y-58727432D01*
X91579937Y-58850682D01*
X91312148Y-59029613D01*
X91084413Y-59257348D01*
X90905482Y-59525137D01*
X90782232Y-59822688D01*
X90719400Y-60138567D01*
X88172800Y-60138567D01*
X88172800Y-59986167D01*
X88109968Y-59670288D01*
X87986718Y-59372737D01*
X87807787Y-59104948D01*
X87580052Y-58877213D01*
X87312263Y-58698282D01*
X87014712Y-58575032D01*
X86698833Y-58512200D01*
X86376767Y-58512200D01*
X86060888Y-58575032D01*
X85763337Y-58698282D01*
X85495548Y-58877213D01*
X85267813Y-59104948D01*
X85088882Y-59372737D01*
X84965632Y-59670288D01*
X84902800Y-59986167D01*
X83137968Y-59986167D01*
X83117053Y-59881026D01*
X83008880Y-59619873D01*
X82851837Y-59384841D01*
X82651959Y-59184963D01*
X82419441Y-59029600D01*
X82651959Y-58874237D01*
X82851837Y-58674359D01*
X82955243Y-58519600D01*
X85205078Y-58519600D01*
X85242400Y-58523276D01*
X85279722Y-58519600D01*
X85279733Y-58519600D01*
X85391386Y-58508603D01*
X85534647Y-58465146D01*
X85666676Y-58394574D01*
X85782401Y-58299601D01*
X85806204Y-58270597D01*
X86290114Y-57786688D01*
X86472665Y-57823000D01*
X86755335Y-57823000D01*
X87032574Y-57767853D01*
X87293727Y-57659680D01*
X87528759Y-57502637D01*
X87728637Y-57302759D01*
X87832043Y-57148000D01*
X91110957Y-57148000D01*
X91214363Y-57302759D01*
X91414241Y-57502637D01*
X91649273Y-57659680D01*
X91910426Y-57767853D01*
X92187665Y-57823000D01*
X92470335Y-57823000D01*
X92747574Y-57767853D01*
X93008727Y-57659680D01*
X93243759Y-57502637D01*
X93443637Y-57302759D01*
X93600680Y-57067727D01*
X93708853Y-56806574D01*
X93764000Y-56529335D01*
X93764000Y-56246665D01*
X93713476Y-55992665D01*
X96037500Y-55992665D01*
X96037500Y-56275335D01*
X96092647Y-56552574D01*
X96200820Y-56813727D01*
X96357863Y-57048759D01*
X96557741Y-57248637D01*
X96792773Y-57405680D01*
X97053926Y-57513853D01*
X97331165Y-57569000D01*
X97613835Y-57569000D01*
X97891074Y-57513853D01*
X98152227Y-57405680D01*
X98387259Y-57248637D01*
X98587137Y-57048759D01*
X98744180Y-56813727D01*
X98852353Y-56552574D01*
X98907500Y-56275335D01*
X98907500Y-55992665D01*
X98852353Y-55715426D01*
X98744180Y-55454273D01*
X98587137Y-55219241D01*
X98387259Y-55019363D01*
X98152227Y-54862320D01*
X97891074Y-54754147D01*
X97613835Y-54699000D01*
X97331165Y-54699000D01*
X97053926Y-54754147D01*
X96792773Y-54862320D01*
X96557741Y-55019363D01*
X96357863Y-55219241D01*
X96200820Y-55454273D01*
X96092647Y-55715426D01*
X96037500Y-55992665D01*
X93713476Y-55992665D01*
X93708853Y-55969426D01*
X93600680Y-55708273D01*
X93443637Y-55473241D01*
X93243759Y-55273363D01*
X93008727Y-55116320D01*
X92747574Y-55008147D01*
X92470335Y-54953000D01*
X92187665Y-54953000D01*
X91910426Y-55008147D01*
X91649273Y-55116320D01*
X91414241Y-55273363D01*
X91214363Y-55473241D01*
X91110957Y-55628000D01*
X87832043Y-55628000D01*
X87728637Y-55473241D01*
X87528759Y-55273363D01*
X87293727Y-55116320D01*
X87032574Y-55008147D01*
X86755335Y-54953000D01*
X86472665Y-54953000D01*
X86195426Y-55008147D01*
X85934273Y-55116320D01*
X85699241Y-55273363D01*
X85499363Y-55473241D01*
X85342320Y-55708273D01*
X85234147Y-55969426D01*
X85179000Y-56246665D01*
X85179000Y-56529335D01*
X85215312Y-56711886D01*
X84927599Y-56999600D01*
X82955243Y-56999600D01*
X82851837Y-56844841D01*
X82651959Y-56644963D01*
X82419441Y-56489600D01*
X82651959Y-56334237D01*
X82851837Y-56134359D01*
X83008880Y-55899327D01*
X83117053Y-55638174D01*
X83172200Y-55360935D01*
X83172200Y-55078265D01*
X83117053Y-54801026D01*
X83008880Y-54539873D01*
X82851837Y-54304841D01*
X82651959Y-54104963D01*
X82419441Y-53949600D01*
X82651959Y-53794237D01*
X82851837Y-53594359D01*
X83008880Y-53359327D01*
X83117053Y-53098174D01*
X83172200Y-52820935D01*
X83172200Y-52794000D01*
X102574928Y-52794000D01*
X102574928Y-54394000D01*
X102587188Y-54518482D01*
X102623498Y-54638180D01*
X102682463Y-54748494D01*
X102761815Y-54845185D01*
X102858506Y-54924537D01*
X102968820Y-54983502D01*
X103088518Y-55019812D01*
X103213000Y-55032072D01*
X104813000Y-55032072D01*
X104937482Y-55019812D01*
X105057180Y-54983502D01*
X105167494Y-54924537D01*
X105264185Y-54845185D01*
X105343537Y-54748494D01*
X105402502Y-54638180D01*
X105438812Y-54518482D01*
X105451072Y-54394000D01*
X105451072Y-52794000D01*
X105438812Y-52669518D01*
X105402502Y-52549820D01*
X105343537Y-52439506D01*
X105325040Y-52416967D01*
X108601000Y-52416967D01*
X108601000Y-52739033D01*
X108663832Y-53054912D01*
X108787082Y-53352463D01*
X108966013Y-53620252D01*
X109193748Y-53847987D01*
X109461537Y-54026918D01*
X109759088Y-54150168D01*
X110074967Y-54213000D01*
X110397033Y-54213000D01*
X110712912Y-54150168D01*
X111010463Y-54026918D01*
X111278252Y-53847987D01*
X111505987Y-53620252D01*
X111684918Y-53352463D01*
X111808168Y-53054912D01*
X111871000Y-52739033D01*
X111871000Y-52416967D01*
X111808168Y-52101088D01*
X111684918Y-51803537D01*
X111505987Y-51535748D01*
X111278252Y-51308013D01*
X111010463Y-51129082D01*
X110712912Y-51005832D01*
X110397033Y-50943000D01*
X110074967Y-50943000D01*
X109759088Y-51005832D01*
X109461537Y-51129082D01*
X109193748Y-51308013D01*
X108966013Y-51535748D01*
X108787082Y-51803537D01*
X108663832Y-52101088D01*
X108601000Y-52416967D01*
X105325040Y-52416967D01*
X105264185Y-52342815D01*
X105167494Y-52263463D01*
X105057180Y-52204498D01*
X104937482Y-52168188D01*
X104813000Y-52155928D01*
X104805785Y-52155928D01*
X104826097Y-52086702D01*
X104013000Y-51273605D01*
X103199903Y-52086702D01*
X103220215Y-52155928D01*
X103213000Y-52155928D01*
X103088518Y-52168188D01*
X102968820Y-52204498D01*
X102858506Y-52263463D01*
X102761815Y-52342815D01*
X102682463Y-52439506D01*
X102623498Y-52549820D01*
X102587188Y-52669518D01*
X102574928Y-52794000D01*
X83172200Y-52794000D01*
X83172200Y-52538265D01*
X83117053Y-52261026D01*
X83008880Y-51999873D01*
X82851837Y-51764841D01*
X82651959Y-51564963D01*
X82416927Y-51407920D01*
X82155774Y-51299747D01*
X81878535Y-51244600D01*
X81595865Y-51244600D01*
X81318626Y-51299747D01*
X81057473Y-51407920D01*
X80822441Y-51564963D01*
X80622563Y-51764841D01*
X80465520Y-51999873D01*
X80357347Y-52261026D01*
X80302200Y-52538265D01*
X80302200Y-52820935D01*
X80309183Y-52856038D01*
X75551330Y-57613892D01*
X75497053Y-57341026D01*
X75388880Y-57079873D01*
X75231837Y-56844841D01*
X75031959Y-56644963D01*
X74799441Y-56489600D01*
X75031959Y-56334237D01*
X75231837Y-56134359D01*
X75388880Y-55899327D01*
X75497053Y-55638174D01*
X75552200Y-55360935D01*
X75552200Y-55078265D01*
X75497053Y-54801026D01*
X75388880Y-54539873D01*
X75231837Y-54304841D01*
X75033239Y-54106243D01*
X75041682Y-54105412D01*
X75161380Y-54069102D01*
X75271694Y-54010137D01*
X75368385Y-53930785D01*
X75447737Y-53834094D01*
X75506702Y-53723780D01*
X75543012Y-53604082D01*
X75555272Y-53479600D01*
X75552200Y-52965350D01*
X75393450Y-52806600D01*
X74244200Y-52806600D01*
X74244200Y-52826600D01*
X73990200Y-52826600D01*
X73990200Y-52806600D01*
X72840950Y-52806600D01*
X72682200Y-52965350D01*
X72679128Y-53479600D01*
X61660000Y-53479600D01*
X61660000Y-51879600D01*
X72679128Y-51879600D01*
X72682200Y-52393850D01*
X72840950Y-52552600D01*
X73990200Y-52552600D01*
X73990200Y-51403350D01*
X74244200Y-51403350D01*
X74244200Y-52552600D01*
X75393450Y-52552600D01*
X75552200Y-52393850D01*
X75555272Y-51879600D01*
X75543012Y-51755118D01*
X75506702Y-51635420D01*
X75447737Y-51525106D01*
X75368385Y-51428415D01*
X75271694Y-51349063D01*
X75161380Y-51290098D01*
X75041682Y-51253788D01*
X74917200Y-51241528D01*
X74402950Y-51244600D01*
X74244200Y-51403350D01*
X73990200Y-51403350D01*
X73831450Y-51244600D01*
X73317200Y-51241528D01*
X73192718Y-51253788D01*
X73073020Y-51290098D01*
X72962706Y-51349063D01*
X72866015Y-51428415D01*
X72786663Y-51525106D01*
X72727698Y-51635420D01*
X72691388Y-51755118D01*
X72679128Y-51879600D01*
X61660000Y-51879600D01*
X61660000Y-51164512D01*
X102572783Y-51164512D01*
X102614213Y-51444130D01*
X102709397Y-51710292D01*
X102776329Y-51835514D01*
X103020298Y-51907097D01*
X103833395Y-51094000D01*
X104192605Y-51094000D01*
X105005702Y-51907097D01*
X105249671Y-51835514D01*
X105370571Y-51580004D01*
X105439300Y-51305816D01*
X105453217Y-51023488D01*
X105411787Y-50743870D01*
X105316603Y-50477708D01*
X105249671Y-50352486D01*
X105005702Y-50280903D01*
X104192605Y-51094000D01*
X103833395Y-51094000D01*
X103020298Y-50280903D01*
X102776329Y-50352486D01*
X102655429Y-50607996D01*
X102586700Y-50882184D01*
X102572783Y-51164512D01*
X61660000Y-51164512D01*
X61660000Y-48617702D01*
X76000303Y-48617702D01*
X76071886Y-48861671D01*
X76327396Y-48982571D01*
X76601584Y-49051300D01*
X76883912Y-49065217D01*
X77163530Y-49023787D01*
X77429692Y-48928603D01*
X77554914Y-48861671D01*
X77626497Y-48617702D01*
X76813400Y-47804605D01*
X76000303Y-48617702D01*
X61660000Y-48617702D01*
X61660000Y-47695512D01*
X75373183Y-47695512D01*
X75414613Y-47975130D01*
X75509797Y-48241292D01*
X75576729Y-48366514D01*
X75820698Y-48438097D01*
X76633795Y-47625000D01*
X76993005Y-47625000D01*
X77806102Y-48438097D01*
X78050071Y-48366514D01*
X78170971Y-48111004D01*
X78239700Y-47836816D01*
X78253617Y-47554488D01*
X78243124Y-47483665D01*
X80378400Y-47483665D01*
X80378400Y-47766335D01*
X80433547Y-48043574D01*
X80541720Y-48304727D01*
X80698763Y-48539759D01*
X80898641Y-48739637D01*
X81133673Y-48896680D01*
X81394826Y-49004853D01*
X81672065Y-49060000D01*
X81954735Y-49060000D01*
X82231974Y-49004853D01*
X82493127Y-48896680D01*
X82728159Y-48739637D01*
X82841131Y-48626665D01*
X85179000Y-48626665D01*
X85179000Y-48909335D01*
X85234147Y-49186574D01*
X85342320Y-49447727D01*
X85499363Y-49682759D01*
X85699241Y-49882637D01*
X85934273Y-50039680D01*
X86195426Y-50147853D01*
X86472665Y-50203000D01*
X86755335Y-50203000D01*
X87032574Y-50147853D01*
X87293727Y-50039680D01*
X87528759Y-49882637D01*
X87728637Y-49682759D01*
X87885680Y-49447727D01*
X87993853Y-49186574D01*
X88049000Y-48909335D01*
X88049000Y-48626665D01*
X87993853Y-48349426D01*
X87885680Y-48088273D01*
X87805317Y-47968000D01*
X90890928Y-47968000D01*
X90890928Y-49568000D01*
X90903188Y-49692482D01*
X90939498Y-49812180D01*
X90998463Y-49922494D01*
X91077815Y-50019185D01*
X91174506Y-50098537D01*
X91284820Y-50157502D01*
X91404518Y-50193812D01*
X91529000Y-50206072D01*
X93129000Y-50206072D01*
X93253482Y-50193812D01*
X93373180Y-50157502D01*
X93478328Y-50101298D01*
X103199903Y-50101298D01*
X104013000Y-50914395D01*
X104826097Y-50101298D01*
X104754514Y-49857329D01*
X104499004Y-49736429D01*
X104224816Y-49667700D01*
X103942488Y-49653783D01*
X103662870Y-49695213D01*
X103396708Y-49790397D01*
X103271486Y-49857329D01*
X103199903Y-50101298D01*
X93478328Y-50101298D01*
X93483494Y-50098537D01*
X93580185Y-50019185D01*
X93659537Y-49922494D01*
X93718502Y-49812180D01*
X93754812Y-49692482D01*
X93767072Y-49568000D01*
X93767072Y-48863040D01*
X96080591Y-48863040D01*
X96175430Y-49127881D01*
X96320115Y-49369131D01*
X96509086Y-49577519D01*
X96735080Y-49745037D01*
X96989413Y-49865246D01*
X97123461Y-49905904D01*
X97345500Y-49783915D01*
X97345500Y-48641000D01*
X97599500Y-48641000D01*
X97599500Y-49783915D01*
X97821539Y-49905904D01*
X97955587Y-49865246D01*
X98209920Y-49745037D01*
X98435914Y-49577519D01*
X98624885Y-49369131D01*
X98769570Y-49127881D01*
X98864409Y-48863040D01*
X98743124Y-48641000D01*
X97599500Y-48641000D01*
X97345500Y-48641000D01*
X96201876Y-48641000D01*
X96080591Y-48863040D01*
X93767072Y-48863040D01*
X93767072Y-48164960D01*
X96080591Y-48164960D01*
X96201876Y-48387000D01*
X97345500Y-48387000D01*
X97345500Y-47244085D01*
X97599500Y-47244085D01*
X97599500Y-48387000D01*
X98743124Y-48387000D01*
X98864409Y-48164960D01*
X98769570Y-47900119D01*
X98624885Y-47658869D01*
X98435914Y-47450481D01*
X98209920Y-47282963D01*
X97955587Y-47162754D01*
X97821539Y-47122096D01*
X97599500Y-47244085D01*
X97345500Y-47244085D01*
X97123461Y-47122096D01*
X96989413Y-47162754D01*
X96735080Y-47282963D01*
X96509086Y-47450481D01*
X96320115Y-47658869D01*
X96175430Y-47900119D01*
X96080591Y-48164960D01*
X93767072Y-48164960D01*
X93767072Y-47968000D01*
X93754812Y-47843518D01*
X93718502Y-47723820D01*
X93659537Y-47613506D01*
X93580185Y-47516815D01*
X93483494Y-47437463D01*
X93373180Y-47378498D01*
X93253482Y-47342188D01*
X93129000Y-47329928D01*
X91529000Y-47329928D01*
X91404518Y-47342188D01*
X91284820Y-47378498D01*
X91174506Y-47437463D01*
X91077815Y-47516815D01*
X90998463Y-47613506D01*
X90939498Y-47723820D01*
X90903188Y-47843518D01*
X90890928Y-47968000D01*
X87805317Y-47968000D01*
X87728637Y-47853241D01*
X87528759Y-47653363D01*
X87293727Y-47496320D01*
X87032574Y-47388147D01*
X86755335Y-47333000D01*
X86472665Y-47333000D01*
X86195426Y-47388147D01*
X85934273Y-47496320D01*
X85699241Y-47653363D01*
X85499363Y-47853241D01*
X85342320Y-48088273D01*
X85234147Y-48349426D01*
X85179000Y-48626665D01*
X82841131Y-48626665D01*
X82928037Y-48539759D01*
X83085080Y-48304727D01*
X83193253Y-48043574D01*
X83248400Y-47766335D01*
X83248400Y-47483665D01*
X83193253Y-47206426D01*
X83085080Y-46945273D01*
X82928037Y-46710241D01*
X82728159Y-46510363D01*
X82493127Y-46353320D01*
X82231974Y-46245147D01*
X81954735Y-46190000D01*
X81672065Y-46190000D01*
X81394826Y-46245147D01*
X81133673Y-46353320D01*
X80898641Y-46510363D01*
X80698763Y-46710241D01*
X80541720Y-46945273D01*
X80433547Y-47206426D01*
X80378400Y-47483665D01*
X78243124Y-47483665D01*
X78212187Y-47274870D01*
X78117003Y-47008708D01*
X78050071Y-46883486D01*
X77806102Y-46811903D01*
X76993005Y-47625000D01*
X76633795Y-47625000D01*
X75820698Y-46811903D01*
X75576729Y-46883486D01*
X75455829Y-47138996D01*
X75387100Y-47413184D01*
X75373183Y-47695512D01*
X61660000Y-47695512D01*
X61660000Y-44779872D01*
X63765000Y-44779872D01*
X63765000Y-45220128D01*
X63850890Y-45651925D01*
X64019369Y-46058669D01*
X64263962Y-46424729D01*
X64575271Y-46736038D01*
X64941331Y-46980631D01*
X65348075Y-47149110D01*
X65779872Y-47235000D01*
X66220128Y-47235000D01*
X66651925Y-47149110D01*
X67058669Y-46980631D01*
X67424729Y-46736038D01*
X67528469Y-46632298D01*
X76000303Y-46632298D01*
X76813400Y-47445395D01*
X77626497Y-46632298D01*
X77554914Y-46388329D01*
X77299404Y-46267429D01*
X77025216Y-46198700D01*
X76742888Y-46184783D01*
X76463270Y-46226213D01*
X76197108Y-46321397D01*
X76071886Y-46388329D01*
X76000303Y-46632298D01*
X67528469Y-46632298D01*
X67736038Y-46424729D01*
X67980631Y-46058669D01*
X68149110Y-45651925D01*
X68235000Y-45220128D01*
X68235000Y-44779872D01*
X68167876Y-44442413D01*
X87436192Y-44442413D01*
X87531956Y-44706814D01*
X87821571Y-44847704D01*
X88133108Y-44929384D01*
X88454595Y-44948718D01*
X88773675Y-44904961D01*
X89078088Y-44799795D01*
X89252044Y-44706814D01*
X89347808Y-44442413D01*
X89284308Y-44378913D01*
X93786192Y-44378913D01*
X93881956Y-44643314D01*
X94171571Y-44784204D01*
X94483108Y-44865884D01*
X94804595Y-44885218D01*
X95123675Y-44841461D01*
X95428088Y-44736295D01*
X95602044Y-44643314D01*
X95628810Y-44569413D01*
X99882192Y-44569413D01*
X99977956Y-44833814D01*
X100267571Y-44974704D01*
X100579108Y-45056384D01*
X100900595Y-45075718D01*
X101219675Y-45031961D01*
X101524088Y-44926795D01*
X101698044Y-44833814D01*
X101717581Y-44779872D01*
X105765000Y-44779872D01*
X105765000Y-45220128D01*
X105850890Y-45651925D01*
X106019369Y-46058669D01*
X106263962Y-46424729D01*
X106575271Y-46736038D01*
X106941331Y-46980631D01*
X107348075Y-47149110D01*
X107779872Y-47235000D01*
X108220128Y-47235000D01*
X108651925Y-47149110D01*
X109058669Y-46980631D01*
X109424729Y-46736038D01*
X109736038Y-46424729D01*
X109980631Y-46058669D01*
X110149110Y-45651925D01*
X110235000Y-45220128D01*
X110235000Y-44779872D01*
X110149110Y-44348075D01*
X109980631Y-43941331D01*
X109736038Y-43575271D01*
X109424729Y-43263962D01*
X109058669Y-43019369D01*
X108651925Y-42850890D01*
X108220128Y-42765000D01*
X107779872Y-42765000D01*
X107348075Y-42850890D01*
X106941331Y-43019369D01*
X106575271Y-43263962D01*
X106263962Y-43575271D01*
X106019369Y-43941331D01*
X105850890Y-44348075D01*
X105765000Y-44779872D01*
X101717581Y-44779872D01*
X101793808Y-44569413D01*
X100838000Y-43613605D01*
X99882192Y-44569413D01*
X95628810Y-44569413D01*
X95697808Y-44378913D01*
X94742000Y-43423105D01*
X93786192Y-44378913D01*
X89284308Y-44378913D01*
X88392000Y-43486605D01*
X87436192Y-44442413D01*
X68167876Y-44442413D01*
X68149110Y-44348075D01*
X67980631Y-43941331D01*
X67736038Y-43575271D01*
X67424729Y-43263962D01*
X67339017Y-43206691D01*
X76587319Y-43206691D01*
X76684643Y-43481052D01*
X76833622Y-43731155D01*
X77028531Y-43947388D01*
X77261880Y-44121441D01*
X77524701Y-44246625D01*
X77671910Y-44291276D01*
X77901800Y-44169955D01*
X77901800Y-42976800D01*
X76707986Y-42976800D01*
X76587319Y-43206691D01*
X67339017Y-43206691D01*
X67058669Y-43019369D01*
X66651925Y-42850890D01*
X66220128Y-42765000D01*
X65779872Y-42765000D01*
X65348075Y-42850890D01*
X64941331Y-43019369D01*
X64575271Y-43263962D01*
X64263962Y-43575271D01*
X64019369Y-43941331D01*
X63850890Y-44348075D01*
X63765000Y-44779872D01*
X61660000Y-44779872D01*
X61660000Y-42492909D01*
X76587319Y-42492909D01*
X76707986Y-42722800D01*
X77901800Y-42722800D01*
X77901800Y-41529645D01*
X78155800Y-41529645D01*
X78155800Y-42722800D01*
X78175800Y-42722800D01*
X78175800Y-42976800D01*
X78155800Y-42976800D01*
X78155800Y-44169955D01*
X78385690Y-44291276D01*
X78532899Y-44246625D01*
X78795720Y-44121441D01*
X79029069Y-43947388D01*
X79104834Y-43863334D01*
X79129298Y-43943980D01*
X79188263Y-44054294D01*
X79267615Y-44150985D01*
X79364306Y-44230337D01*
X79474620Y-44289302D01*
X79594318Y-44325612D01*
X79718800Y-44337872D01*
X81418800Y-44337872D01*
X81543282Y-44325612D01*
X81662980Y-44289302D01*
X81773294Y-44230337D01*
X81869985Y-44150985D01*
X81949337Y-44054294D01*
X82008302Y-43943980D01*
X82044612Y-43824282D01*
X82056872Y-43699800D01*
X82056872Y-43369595D01*
X86750282Y-43369595D01*
X86794039Y-43688675D01*
X86899205Y-43993088D01*
X86992186Y-44167044D01*
X87256587Y-44262808D01*
X88212395Y-43307000D01*
X88571605Y-43307000D01*
X89527413Y-44262808D01*
X89791814Y-44167044D01*
X89932704Y-43877429D01*
X90014384Y-43565892D01*
X90030008Y-43306095D01*
X93100282Y-43306095D01*
X93144039Y-43625175D01*
X93249205Y-43929588D01*
X93342186Y-44103544D01*
X93606587Y-44199308D01*
X94562395Y-43243500D01*
X94921605Y-43243500D01*
X95877413Y-44199308D01*
X96141814Y-44103544D01*
X96282704Y-43813929D01*
X96364384Y-43502392D01*
X96364732Y-43496595D01*
X99196282Y-43496595D01*
X99240039Y-43815675D01*
X99345205Y-44120088D01*
X99438186Y-44294044D01*
X99702587Y-44389808D01*
X100658395Y-43434000D01*
X101017605Y-43434000D01*
X101973413Y-44389808D01*
X102237814Y-44294044D01*
X102378704Y-44004429D01*
X102460384Y-43692892D01*
X102479718Y-43371405D01*
X102435961Y-43052325D01*
X102330795Y-42747912D01*
X102237814Y-42573956D01*
X101973413Y-42478192D01*
X101017605Y-43434000D01*
X100658395Y-43434000D01*
X99702587Y-42478192D01*
X99438186Y-42573956D01*
X99297296Y-42863571D01*
X99215616Y-43175108D01*
X99196282Y-43496595D01*
X96364732Y-43496595D01*
X96383718Y-43180905D01*
X96339961Y-42861825D01*
X96234795Y-42557412D01*
X96141814Y-42383456D01*
X95907494Y-42298587D01*
X99882192Y-42298587D01*
X100838000Y-43254395D01*
X101793808Y-42298587D01*
X101698044Y-42034186D01*
X101408429Y-41893296D01*
X101096892Y-41811616D01*
X100775405Y-41792282D01*
X100456325Y-41836039D01*
X100151912Y-41941205D01*
X99977956Y-42034186D01*
X99882192Y-42298587D01*
X95907494Y-42298587D01*
X95877413Y-42287692D01*
X94921605Y-43243500D01*
X94562395Y-43243500D01*
X93606587Y-42287692D01*
X93342186Y-42383456D01*
X93201296Y-42673071D01*
X93119616Y-42984608D01*
X93100282Y-43306095D01*
X90030008Y-43306095D01*
X90033718Y-43244405D01*
X89989961Y-42925325D01*
X89884795Y-42620912D01*
X89791814Y-42446956D01*
X89527413Y-42351192D01*
X88571605Y-43307000D01*
X88212395Y-43307000D01*
X87256587Y-42351192D01*
X86992186Y-42446956D01*
X86851296Y-42736571D01*
X86769616Y-43048108D01*
X86750282Y-43369595D01*
X82056872Y-43369595D01*
X82056872Y-42171587D01*
X87436192Y-42171587D01*
X88392000Y-43127395D01*
X89347808Y-42171587D01*
X89324809Y-42108087D01*
X93786192Y-42108087D01*
X94742000Y-43063895D01*
X95697808Y-42108087D01*
X95602044Y-41843686D01*
X95312429Y-41702796D01*
X95000892Y-41621116D01*
X94679405Y-41601782D01*
X94360325Y-41645539D01*
X94055912Y-41750705D01*
X93881956Y-41843686D01*
X93786192Y-42108087D01*
X89324809Y-42108087D01*
X89252044Y-41907186D01*
X88962429Y-41766296D01*
X88650892Y-41684616D01*
X88329405Y-41665282D01*
X88010325Y-41709039D01*
X87705912Y-41814205D01*
X87531956Y-41907186D01*
X87436192Y-42171587D01*
X82056872Y-42171587D01*
X82056872Y-41999800D01*
X82044612Y-41875318D01*
X82008302Y-41755620D01*
X81949337Y-41645306D01*
X81869985Y-41548615D01*
X81773294Y-41469263D01*
X81662980Y-41410298D01*
X81543282Y-41373988D01*
X81418800Y-41361728D01*
X79718800Y-41361728D01*
X79594318Y-41373988D01*
X79474620Y-41410298D01*
X79364306Y-41469263D01*
X79267615Y-41548615D01*
X79188263Y-41645306D01*
X79129298Y-41755620D01*
X79104834Y-41836266D01*
X79029069Y-41752212D01*
X78795720Y-41578159D01*
X78532899Y-41452975D01*
X78385690Y-41408324D01*
X78155800Y-41529645D01*
X77901800Y-41529645D01*
X77671910Y-41408324D01*
X77524701Y-41452975D01*
X77261880Y-41578159D01*
X77028531Y-41752212D01*
X76833622Y-41968445D01*
X76684643Y-42218548D01*
X76587319Y-42492909D01*
X61660000Y-42492909D01*
X61660000Y-40660000D01*
X112340000Y-40660000D01*
X112340001Y-64340000D01*
G37*
%TD.AperFunction*%
%TD*%
M02*
