%TF.GenerationSoftware,KiCad,Pcbnew,5.1.9-73d0e3b20d~88~ubuntu20.04.1*%
%TF.CreationDate,2021-03-24T21:29:24+01:00*%
%TF.ProjectId,10_KiCad_WCP,31305f4b-6943-4616-945f-5743502e6b69,rev?*%
%TF.SameCoordinates,Original*%
%TF.FileFunction,Copper,L1,Top*%
%TF.FilePolarity,Positive*%
%FSLAX46Y46*%
G04 Gerber Fmt 4.6, Leading zero omitted, Abs format (unit mm)*
G04 Created by KiCad (PCBNEW 5.1.9-73d0e3b20d~88~ubuntu20.04.1) date 2021-03-24 21:29:24*
%MOMM*%
%LPD*%
G01*
G04 APERTURE LIST*
%TA.AperFunction,ComponentPad*%
%ADD10O,1.600000X1.600000*%
%TD*%
%TA.AperFunction,ComponentPad*%
%ADD11C,1.600000*%
%TD*%
%TA.AperFunction,ComponentPad*%
%ADD12C,2.000000*%
%TD*%
%TA.AperFunction,ComponentPad*%
%ADD13C,1.800000*%
%TD*%
%TA.AperFunction,ComponentPad*%
%ADD14R,1.800000X1.800000*%
%TD*%
%TA.AperFunction,ComponentPad*%
%ADD15R,1.600000X1.600000*%
%TD*%
%TA.AperFunction,ComponentPad*%
%ADD16O,1.700000X1.700000*%
%TD*%
%TA.AperFunction,ComponentPad*%
%ADD17R,1.700000X1.700000*%
%TD*%
%TA.AperFunction,Conductor*%
%ADD18C,0.200000*%
%TD*%
%TA.AperFunction,Conductor*%
%ADD19C,0.500000*%
%TD*%
%TA.AperFunction,Conductor*%
%ADD20C,0.250000*%
%TD*%
%TA.AperFunction,Conductor*%
%ADD21C,0.254000*%
%TD*%
%TA.AperFunction,Conductor*%
%ADD22C,0.100000*%
%TD*%
G04 APERTURE END LIST*
D10*
%TO.P,R2,2*%
%TO.N,/THR*%
X86614000Y-56388000D03*
D11*
%TO.P,R2,1*%
%TO.N,+9V*%
X86614000Y-48768000D03*
%TD*%
D12*
%TO.P,TP6,1*%
%TO.N,Net-(D3-Pad2)*%
X92354400Y-60299600D03*
%TD*%
%TO.P,TP5,1*%
%TO.N,+9V*%
X86537800Y-60147200D03*
%TD*%
%TO.P,TP4,1*%
%TO.N,/THR*%
X110236000Y-52578000D03*
%TD*%
%TO.P,TP3,1*%
%TO.N,GND*%
X94742000Y-43243500D03*
%TD*%
%TO.P,TP2,1*%
%TO.N,GND*%
X88392000Y-43307000D03*
%TD*%
%TO.P,TP1,1*%
%TO.N,GND*%
X100838000Y-43434000D03*
%TD*%
%TO.P,R1,2*%
%TO.N,Net-(LED1-Pad2)*%
%TA.AperFunction,SMDPad,CuDef*%
G36*
G01*
X64887000Y-51678000D02*
X63637000Y-51678000D01*
G75*
G02*
X63387000Y-51428000I0J250000D01*
G01*
X63387000Y-50628000D01*
G75*
G02*
X63637000Y-50378000I250000J0D01*
G01*
X64887000Y-50378000D01*
G75*
G02*
X65137000Y-50628000I0J-250000D01*
G01*
X65137000Y-51428000D01*
G75*
G02*
X64887000Y-51678000I-250000J0D01*
G01*
G37*
%TD.AperFunction*%
%TO.P,R1,1*%
%TO.N,+9V*%
%TA.AperFunction,SMDPad,CuDef*%
G36*
G01*
X64887000Y-54778000D02*
X63637000Y-54778000D01*
G75*
G02*
X63387000Y-54528000I0J250000D01*
G01*
X63387000Y-53728000D01*
G75*
G02*
X63637000Y-53478000I250000J0D01*
G01*
X64887000Y-53478000D01*
G75*
G02*
X65137000Y-53728000I0J-250000D01*
G01*
X65137000Y-54528000D01*
G75*
G02*
X64887000Y-54778000I-250000J0D01*
G01*
G37*
%TD.AperFunction*%
%TD*%
D13*
%TO.P,D3,2*%
%TO.N,Net-(D3-Pad2)*%
X98856800Y-60909200D03*
D14*
%TO.P,D3,1*%
%TO.N,Net-(D3-Pad1)*%
X101396800Y-60909200D03*
%TD*%
D10*
%TO.P,R3,2*%
%TO.N,GND*%
X97472500Y-48514000D03*
D11*
%TO.P,R3,1*%
%TO.N,Net-(D3-Pad1)*%
X97472500Y-56134000D03*
%TD*%
D10*
%TO.P,U1,8*%
%TO.N,+9V*%
X81737200Y-52679600D03*
%TO.P,U1,4*%
X74117200Y-60299600D03*
%TO.P,U1,7*%
X81737200Y-55219600D03*
%TO.P,U1,3*%
%TO.N,Net-(D3-Pad2)*%
X74117200Y-57759600D03*
%TO.P,U1,6*%
%TO.N,/THR*%
X81737200Y-57759600D03*
%TO.P,U1,2*%
X74117200Y-55219600D03*
%TO.P,U1,5*%
%TO.N,Net-(U1-Pad5)*%
X81737200Y-60299600D03*
D15*
%TO.P,U1,1*%
%TO.N,GND*%
X74117200Y-52679600D03*
%TD*%
D16*
%TO.P,J1,2*%
%TO.N,GND*%
X78028800Y-42849800D03*
D17*
%TO.P,J1,1*%
%TO.N,+9V*%
X80568800Y-42849800D03*
%TD*%
D10*
%TO.P,D2,2*%
%TO.N,/THR*%
X92329000Y-56388000D03*
D15*
%TO.P,D2,1*%
%TO.N,+9V*%
X92329000Y-48768000D03*
%TD*%
%TO.P,LED1,2*%
%TO.N,Net-(LED1-Pad2)*%
%TA.AperFunction,SMDPad,CuDef*%
G36*
G01*
X69713000Y-51803000D02*
X68463000Y-51803000D01*
G75*
G02*
X68213000Y-51553000I0J250000D01*
G01*
X68213000Y-50628000D01*
G75*
G02*
X68463000Y-50378000I250000J0D01*
G01*
X69713000Y-50378000D01*
G75*
G02*
X69963000Y-50628000I0J-250000D01*
G01*
X69963000Y-51553000D01*
G75*
G02*
X69713000Y-51803000I-250000J0D01*
G01*
G37*
%TD.AperFunction*%
%TO.P,LED1,1*%
%TO.N,GND*%
%TA.AperFunction,SMDPad,CuDef*%
G36*
G01*
X69713000Y-54778000D02*
X68463000Y-54778000D01*
G75*
G02*
X68213000Y-54528000I0J250000D01*
G01*
X68213000Y-53603000D01*
G75*
G02*
X68463000Y-53353000I250000J0D01*
G01*
X69713000Y-53353000D01*
G75*
G02*
X69963000Y-53603000I0J-250000D01*
G01*
X69963000Y-54528000D01*
G75*
G02*
X69713000Y-54778000I-250000J0D01*
G01*
G37*
%TD.AperFunction*%
%TD*%
D11*
%TO.P,C2,2*%
%TO.N,GND*%
X104013000Y-51094000D03*
D15*
%TO.P,C2,1*%
%TO.N,/THR*%
X104013000Y-53594000D03*
%TD*%
D11*
%TO.P,C1,2*%
%TO.N,GND*%
X76813400Y-47625000D03*
%TO.P,C1,1*%
%TO.N,+9V*%
X81813400Y-47625000D03*
%TD*%
D18*
%TO.N,GND*%
X94678500Y-43307000D02*
X94742000Y-43243500D01*
X100647500Y-43243500D02*
X100838000Y-43434000D01*
D19*
X74080700Y-52643100D02*
X74117200Y-52679600D01*
%TO.N,+9V*%
X73863200Y-60553600D02*
X74117200Y-60299600D01*
X81991200Y-52425600D02*
X81737200Y-52679600D01*
X86487000Y-48895000D02*
X86614000Y-48768000D01*
D18*
X86614000Y-48768000D02*
X92329000Y-48768000D01*
X81991200Y-55219600D02*
X81737200Y-55219600D01*
D19*
X64262000Y-54128000D02*
X65050000Y-54128000D01*
X65050000Y-54128000D02*
X67310000Y-56388000D01*
X67310000Y-56388000D02*
X69850000Y-56388000D01*
X69850000Y-56388000D02*
X71120000Y-57658000D01*
D20*
X81737200Y-52679600D02*
X81737200Y-55219600D01*
X86537800Y-60147200D02*
X86537800Y-59055000D01*
D19*
X71120000Y-57658000D02*
X71120000Y-59842400D01*
X71577200Y-60299600D02*
X74117200Y-60299600D01*
X71120000Y-59842400D02*
X71577200Y-60299600D01*
X80568800Y-46380400D02*
X81813400Y-47625000D01*
X80568800Y-42849800D02*
X80568800Y-46380400D01*
X81813400Y-52603400D02*
X81737200Y-52679600D01*
X81813400Y-47625000D02*
X81813400Y-52603400D01*
D20*
X86537800Y-60020200D02*
X86537800Y-60147200D01*
X81737200Y-55219600D02*
X86537800Y-60020200D01*
X85471000Y-47625000D02*
X86614000Y-48768000D01*
X81813400Y-47625000D02*
X85471000Y-47625000D01*
%TO.N,/THR*%
X74117200Y-55219600D02*
X77419200Y-55219600D01*
X79959200Y-57759600D02*
X81737200Y-57759600D01*
X77419200Y-55219600D02*
X79959200Y-57759600D01*
X92329000Y-56388000D02*
X94717000Y-54000000D01*
X103607000Y-54000000D02*
X104013000Y-53594000D01*
X94717000Y-54000000D02*
X103607000Y-54000000D01*
X109220000Y-53594000D02*
X110236000Y-52578000D01*
X104013000Y-53594000D02*
X109220000Y-53594000D01*
%TO.N,Net-(D3-Pad2)*%
X74117200Y-57759600D02*
X75590400Y-57759600D01*
X79303001Y-61472201D02*
X79303001Y-61523001D01*
X75590400Y-57759600D02*
X79303001Y-61472201D01*
X79303001Y-61523001D02*
X80111600Y-62331600D01*
X90322400Y-62331600D02*
X92354400Y-60299600D01*
X80111600Y-62331600D02*
X90322400Y-62331600D01*
X98247200Y-60299600D02*
X98856800Y-60909200D01*
X92354400Y-60299600D02*
X98247200Y-60299600D01*
%TO.N,Net-(D3-Pad1)*%
X97472500Y-56134000D02*
X99618800Y-56134000D01*
X101396800Y-57912000D02*
X101396800Y-60909200D01*
X99618800Y-56134000D02*
X101396800Y-57912000D01*
D19*
%TO.N,Net-(LED1-Pad2)*%
X69025500Y-51028000D02*
X69088000Y-51090500D01*
X64262000Y-51028000D02*
X69025500Y-51028000D01*
%TD*%
D21*
%TO.N,GND*%
X112340001Y-64340000D02*
X61660000Y-64340000D01*
X61660000Y-59779872D01*
X63765000Y-59779872D01*
X63765000Y-60220128D01*
X63850890Y-60651925D01*
X64019369Y-61058669D01*
X64263962Y-61424729D01*
X64575271Y-61736038D01*
X64941331Y-61980631D01*
X65348075Y-62149110D01*
X65779872Y-62235000D01*
X66220128Y-62235000D01*
X66651925Y-62149110D01*
X67058669Y-61980631D01*
X67424729Y-61736038D01*
X67736038Y-61424729D01*
X67980631Y-61058669D01*
X68149110Y-60651925D01*
X68235000Y-60220128D01*
X68235000Y-59779872D01*
X68149110Y-59348075D01*
X67980631Y-58941331D01*
X67736038Y-58575271D01*
X67424729Y-58263962D01*
X67058669Y-58019369D01*
X66651925Y-57850890D01*
X66220128Y-57765000D01*
X65779872Y-57765000D01*
X65348075Y-57850890D01*
X64941331Y-58019369D01*
X64575271Y-58263962D01*
X64263962Y-58575271D01*
X64019369Y-58941331D01*
X63850890Y-59348075D01*
X63765000Y-59779872D01*
X61660000Y-59779872D01*
X61660000Y-53728000D01*
X62748928Y-53728000D01*
X62748928Y-54528000D01*
X62765992Y-54701254D01*
X62816528Y-54867850D01*
X62898595Y-55021386D01*
X63009038Y-55155962D01*
X63143614Y-55266405D01*
X63297150Y-55348472D01*
X63463746Y-55399008D01*
X63637000Y-55416072D01*
X64887000Y-55416072D01*
X65060254Y-55399008D01*
X65067294Y-55396872D01*
X66653470Y-56983049D01*
X66681183Y-57016817D01*
X66714951Y-57044530D01*
X66714953Y-57044532D01*
X66815941Y-57127411D01*
X66969686Y-57209589D01*
X67098274Y-57248596D01*
X67136510Y-57260195D01*
X67266523Y-57273000D01*
X67266531Y-57273000D01*
X67310000Y-57277281D01*
X67353469Y-57273000D01*
X69483422Y-57273000D01*
X70235000Y-58024579D01*
X70235001Y-59798921D01*
X70230719Y-59842400D01*
X70247805Y-60015890D01*
X70298412Y-60182713D01*
X70380590Y-60336459D01*
X70463468Y-60437446D01*
X70463471Y-60437449D01*
X70491184Y-60471217D01*
X70524952Y-60498930D01*
X70920666Y-60894644D01*
X70948383Y-60928417D01*
X71083141Y-61039011D01*
X71236887Y-61121189D01*
X71403710Y-61171795D01*
X71533723Y-61184600D01*
X71533733Y-61184600D01*
X71577199Y-61188881D01*
X71620665Y-61184600D01*
X72982679Y-61184600D01*
X73002563Y-61214359D01*
X73202441Y-61414237D01*
X73437473Y-61571280D01*
X73698626Y-61679453D01*
X73975865Y-61734600D01*
X74258535Y-61734600D01*
X74535774Y-61679453D01*
X74796927Y-61571280D01*
X75031959Y-61414237D01*
X75231837Y-61214359D01*
X75388880Y-60979327D01*
X75497053Y-60718174D01*
X75552200Y-60440935D01*
X75552200Y-60158265D01*
X75497053Y-59881026D01*
X75388880Y-59619873D01*
X75231837Y-59384841D01*
X75031959Y-59184963D01*
X74799441Y-59029600D01*
X75031959Y-58874237D01*
X75231837Y-58674359D01*
X75311353Y-58555354D01*
X78627551Y-61871553D01*
X78668027Y-61947277D01*
X78763000Y-62063002D01*
X78792002Y-62086803D01*
X79547801Y-62842602D01*
X79571599Y-62871601D01*
X79687324Y-62966574D01*
X79819353Y-63037146D01*
X79962614Y-63080603D01*
X80074267Y-63091600D01*
X80074275Y-63091600D01*
X80111600Y-63095276D01*
X80148925Y-63091600D01*
X90285078Y-63091600D01*
X90322400Y-63095276D01*
X90359722Y-63091600D01*
X90359733Y-63091600D01*
X90471386Y-63080603D01*
X90614647Y-63037146D01*
X90746676Y-62966574D01*
X90862401Y-62871601D01*
X90886204Y-62842597D01*
X91863024Y-61865777D01*
X91877488Y-61871768D01*
X92193367Y-61934600D01*
X92515433Y-61934600D01*
X92831312Y-61871768D01*
X93128863Y-61748518D01*
X93396652Y-61569587D01*
X93624387Y-61341852D01*
X93803318Y-61074063D01*
X93809309Y-61059600D01*
X97321800Y-61059600D01*
X97321800Y-61060384D01*
X97380789Y-61356943D01*
X97496501Y-61636295D01*
X97664488Y-61887705D01*
X97878295Y-62101512D01*
X98129705Y-62269499D01*
X98409057Y-62385211D01*
X98705616Y-62444200D01*
X99007984Y-62444200D01*
X99304543Y-62385211D01*
X99583895Y-62269499D01*
X99835305Y-62101512D01*
X99901744Y-62035073D01*
X99907298Y-62053380D01*
X99966263Y-62163694D01*
X100045615Y-62260385D01*
X100142306Y-62339737D01*
X100252620Y-62398702D01*
X100372318Y-62435012D01*
X100496800Y-62447272D01*
X102296800Y-62447272D01*
X102421282Y-62435012D01*
X102540980Y-62398702D01*
X102651294Y-62339737D01*
X102747985Y-62260385D01*
X102827337Y-62163694D01*
X102886302Y-62053380D01*
X102922612Y-61933682D01*
X102934872Y-61809200D01*
X102934872Y-60009200D01*
X102922612Y-59884718D01*
X102890808Y-59779872D01*
X105765000Y-59779872D01*
X105765000Y-60220128D01*
X105850890Y-60651925D01*
X106019369Y-61058669D01*
X106263962Y-61424729D01*
X106575271Y-61736038D01*
X106941331Y-61980631D01*
X107348075Y-62149110D01*
X107779872Y-62235000D01*
X108220128Y-62235000D01*
X108651925Y-62149110D01*
X109058669Y-61980631D01*
X109424729Y-61736038D01*
X109736038Y-61424729D01*
X109980631Y-61058669D01*
X110149110Y-60651925D01*
X110235000Y-60220128D01*
X110235000Y-59779872D01*
X110149110Y-59348075D01*
X109980631Y-58941331D01*
X109736038Y-58575271D01*
X109424729Y-58263962D01*
X109058669Y-58019369D01*
X108651925Y-57850890D01*
X108220128Y-57765000D01*
X107779872Y-57765000D01*
X107348075Y-57850890D01*
X106941331Y-58019369D01*
X106575271Y-58263962D01*
X106263962Y-58575271D01*
X106019369Y-58941331D01*
X105850890Y-59348075D01*
X105765000Y-59779872D01*
X102890808Y-59779872D01*
X102886302Y-59765020D01*
X102827337Y-59654706D01*
X102747985Y-59558015D01*
X102651294Y-59478663D01*
X102540980Y-59419698D01*
X102421282Y-59383388D01*
X102296800Y-59371128D01*
X102156800Y-59371128D01*
X102156800Y-57949325D01*
X102160476Y-57912000D01*
X102156800Y-57874675D01*
X102156800Y-57874667D01*
X102145803Y-57763014D01*
X102102346Y-57619753D01*
X102031774Y-57487724D01*
X101936801Y-57371999D01*
X101907804Y-57348202D01*
X100182604Y-55623003D01*
X100158801Y-55593999D01*
X100043076Y-55499026D01*
X99911047Y-55428454D01*
X99767786Y-55384997D01*
X99656133Y-55374000D01*
X99656122Y-55374000D01*
X99618800Y-55370324D01*
X99581478Y-55374000D01*
X98690543Y-55374000D01*
X98587137Y-55219241D01*
X98387259Y-55019363D01*
X98152227Y-54862320D01*
X97905204Y-54760000D01*
X102691906Y-54760000D01*
X102761815Y-54845185D01*
X102858506Y-54924537D01*
X102968820Y-54983502D01*
X103088518Y-55019812D01*
X103213000Y-55032072D01*
X104813000Y-55032072D01*
X104937482Y-55019812D01*
X105057180Y-54983502D01*
X105167494Y-54924537D01*
X105264185Y-54845185D01*
X105343537Y-54748494D01*
X105402502Y-54638180D01*
X105438812Y-54518482D01*
X105451072Y-54394000D01*
X105451072Y-54354000D01*
X109182678Y-54354000D01*
X109220000Y-54357676D01*
X109257322Y-54354000D01*
X109257333Y-54354000D01*
X109368986Y-54343003D01*
X109512247Y-54299546D01*
X109644276Y-54228974D01*
X109746603Y-54144997D01*
X109759088Y-54150168D01*
X110074967Y-54213000D01*
X110397033Y-54213000D01*
X110712912Y-54150168D01*
X111010463Y-54026918D01*
X111278252Y-53847987D01*
X111505987Y-53620252D01*
X111684918Y-53352463D01*
X111808168Y-53054912D01*
X111871000Y-52739033D01*
X111871000Y-52416967D01*
X111808168Y-52101088D01*
X111684918Y-51803537D01*
X111505987Y-51535748D01*
X111278252Y-51308013D01*
X111010463Y-51129082D01*
X110712912Y-51005832D01*
X110397033Y-50943000D01*
X110074967Y-50943000D01*
X109759088Y-51005832D01*
X109461537Y-51129082D01*
X109193748Y-51308013D01*
X108966013Y-51535748D01*
X108787082Y-51803537D01*
X108663832Y-52101088D01*
X108601000Y-52416967D01*
X108601000Y-52739033D01*
X108619890Y-52834000D01*
X105451072Y-52834000D01*
X105451072Y-52794000D01*
X105438812Y-52669518D01*
X105402502Y-52549820D01*
X105343537Y-52439506D01*
X105264185Y-52342815D01*
X105167494Y-52263463D01*
X105057180Y-52204498D01*
X104937482Y-52168188D01*
X104813000Y-52155928D01*
X104805785Y-52155928D01*
X104826097Y-52086702D01*
X104013000Y-51273605D01*
X103199903Y-52086702D01*
X103220215Y-52155928D01*
X103213000Y-52155928D01*
X103088518Y-52168188D01*
X102968820Y-52204498D01*
X102858506Y-52263463D01*
X102761815Y-52342815D01*
X102682463Y-52439506D01*
X102623498Y-52549820D01*
X102587188Y-52669518D01*
X102574928Y-52794000D01*
X102574928Y-53240000D01*
X94754322Y-53240000D01*
X94717000Y-53236324D01*
X94679677Y-53240000D01*
X94679667Y-53240000D01*
X94568014Y-53250997D01*
X94424753Y-53294454D01*
X94292723Y-53365026D01*
X94264547Y-53388150D01*
X94176999Y-53459999D01*
X94153201Y-53488997D01*
X92652886Y-54989312D01*
X92470335Y-54953000D01*
X92187665Y-54953000D01*
X91910426Y-55008147D01*
X91649273Y-55116320D01*
X91414241Y-55273363D01*
X91214363Y-55473241D01*
X91057320Y-55708273D01*
X90949147Y-55969426D01*
X90894000Y-56246665D01*
X90894000Y-56529335D01*
X90949147Y-56806574D01*
X91057320Y-57067727D01*
X91214363Y-57302759D01*
X91414241Y-57502637D01*
X91649273Y-57659680D01*
X91910426Y-57767853D01*
X92187665Y-57823000D01*
X92470335Y-57823000D01*
X92747574Y-57767853D01*
X93008727Y-57659680D01*
X93243759Y-57502637D01*
X93443637Y-57302759D01*
X93600680Y-57067727D01*
X93708853Y-56806574D01*
X93764000Y-56529335D01*
X93764000Y-56246665D01*
X93727688Y-56064114D01*
X95031802Y-54760000D01*
X97039796Y-54760000D01*
X96792773Y-54862320D01*
X96557741Y-55019363D01*
X96357863Y-55219241D01*
X96200820Y-55454273D01*
X96092647Y-55715426D01*
X96037500Y-55992665D01*
X96037500Y-56275335D01*
X96092647Y-56552574D01*
X96200820Y-56813727D01*
X96357863Y-57048759D01*
X96557741Y-57248637D01*
X96792773Y-57405680D01*
X97053926Y-57513853D01*
X97331165Y-57569000D01*
X97613835Y-57569000D01*
X97891074Y-57513853D01*
X98152227Y-57405680D01*
X98387259Y-57248637D01*
X98587137Y-57048759D01*
X98690543Y-56894000D01*
X99303999Y-56894000D01*
X100636800Y-58226802D01*
X100636800Y-59371128D01*
X100496800Y-59371128D01*
X100372318Y-59383388D01*
X100252620Y-59419698D01*
X100142306Y-59478663D01*
X100045615Y-59558015D01*
X99966263Y-59654706D01*
X99907298Y-59765020D01*
X99901744Y-59783327D01*
X99835305Y-59716888D01*
X99583895Y-59548901D01*
X99304543Y-59433189D01*
X99007984Y-59374200D01*
X98705616Y-59374200D01*
X98409057Y-59433189D01*
X98152159Y-59539600D01*
X93809309Y-59539600D01*
X93803318Y-59525137D01*
X93624387Y-59257348D01*
X93396652Y-59029613D01*
X93128863Y-58850682D01*
X92831312Y-58727432D01*
X92515433Y-58664600D01*
X92193367Y-58664600D01*
X91877488Y-58727432D01*
X91579937Y-58850682D01*
X91312148Y-59029613D01*
X91084413Y-59257348D01*
X90905482Y-59525137D01*
X90782232Y-59822688D01*
X90719400Y-60138567D01*
X90719400Y-60460633D01*
X90782232Y-60776512D01*
X90788223Y-60790976D01*
X90007599Y-61571600D01*
X87348957Y-61571600D01*
X87580052Y-61417187D01*
X87807787Y-61189452D01*
X87986718Y-60921663D01*
X88109968Y-60624112D01*
X88172800Y-60308233D01*
X88172800Y-59986167D01*
X88109968Y-59670288D01*
X87986718Y-59372737D01*
X87807787Y-59104948D01*
X87580052Y-58877213D01*
X87312263Y-58698282D01*
X87179488Y-58643285D01*
X87172774Y-58630724D01*
X87077801Y-58514999D01*
X86962076Y-58420026D01*
X86830047Y-58349454D01*
X86686786Y-58305997D01*
X86537800Y-58291323D01*
X86388815Y-58305997D01*
X86245554Y-58349454D01*
X86113525Y-58420026D01*
X86057998Y-58465596D01*
X83839067Y-56246665D01*
X85179000Y-56246665D01*
X85179000Y-56529335D01*
X85234147Y-56806574D01*
X85342320Y-57067727D01*
X85499363Y-57302759D01*
X85699241Y-57502637D01*
X85934273Y-57659680D01*
X86195426Y-57767853D01*
X86472665Y-57823000D01*
X86755335Y-57823000D01*
X87032574Y-57767853D01*
X87293727Y-57659680D01*
X87528759Y-57502637D01*
X87728637Y-57302759D01*
X87885680Y-57067727D01*
X87993853Y-56806574D01*
X88049000Y-56529335D01*
X88049000Y-56246665D01*
X87993853Y-55969426D01*
X87885680Y-55708273D01*
X87728637Y-55473241D01*
X87528759Y-55273363D01*
X87293727Y-55116320D01*
X87032574Y-55008147D01*
X86755335Y-54953000D01*
X86472665Y-54953000D01*
X86195426Y-55008147D01*
X85934273Y-55116320D01*
X85699241Y-55273363D01*
X85499363Y-55473241D01*
X85342320Y-55708273D01*
X85234147Y-55969426D01*
X85179000Y-56246665D01*
X83839067Y-56246665D01*
X83135888Y-55543487D01*
X83172200Y-55360935D01*
X83172200Y-55078265D01*
X83117053Y-54801026D01*
X83008880Y-54539873D01*
X82851837Y-54304841D01*
X82651959Y-54104963D01*
X82497200Y-54001557D01*
X82497200Y-53897643D01*
X82651959Y-53794237D01*
X82851837Y-53594359D01*
X83008880Y-53359327D01*
X83117053Y-53098174D01*
X83172200Y-52820935D01*
X83172200Y-52538265D01*
X83117053Y-52261026D01*
X83008880Y-51999873D01*
X82851837Y-51764841D01*
X82698400Y-51611404D01*
X82698400Y-51164512D01*
X102572783Y-51164512D01*
X102614213Y-51444130D01*
X102709397Y-51710292D01*
X102776329Y-51835514D01*
X103020298Y-51907097D01*
X103833395Y-51094000D01*
X104192605Y-51094000D01*
X105005702Y-51907097D01*
X105249671Y-51835514D01*
X105370571Y-51580004D01*
X105439300Y-51305816D01*
X105453217Y-51023488D01*
X105411787Y-50743870D01*
X105316603Y-50477708D01*
X105249671Y-50352486D01*
X105005702Y-50280903D01*
X104192605Y-51094000D01*
X103833395Y-51094000D01*
X103020298Y-50280903D01*
X102776329Y-50352486D01*
X102655429Y-50607996D01*
X102586700Y-50882184D01*
X102572783Y-51164512D01*
X82698400Y-51164512D01*
X82698400Y-48759521D01*
X82728159Y-48739637D01*
X82928037Y-48539759D01*
X83031443Y-48385000D01*
X85156199Y-48385000D01*
X85215312Y-48444113D01*
X85179000Y-48626665D01*
X85179000Y-48909335D01*
X85234147Y-49186574D01*
X85342320Y-49447727D01*
X85499363Y-49682759D01*
X85699241Y-49882637D01*
X85934273Y-50039680D01*
X86195426Y-50147853D01*
X86472665Y-50203000D01*
X86755335Y-50203000D01*
X87032574Y-50147853D01*
X87293727Y-50039680D01*
X87528759Y-49882637D01*
X87728637Y-49682759D01*
X87848748Y-49503000D01*
X90890928Y-49503000D01*
X90890928Y-49568000D01*
X90903188Y-49692482D01*
X90939498Y-49812180D01*
X90998463Y-49922494D01*
X91077815Y-50019185D01*
X91174506Y-50098537D01*
X91284820Y-50157502D01*
X91404518Y-50193812D01*
X91529000Y-50206072D01*
X93129000Y-50206072D01*
X93253482Y-50193812D01*
X93373180Y-50157502D01*
X93478328Y-50101298D01*
X103199903Y-50101298D01*
X104013000Y-50914395D01*
X104826097Y-50101298D01*
X104754514Y-49857329D01*
X104499004Y-49736429D01*
X104224816Y-49667700D01*
X103942488Y-49653783D01*
X103662870Y-49695213D01*
X103396708Y-49790397D01*
X103271486Y-49857329D01*
X103199903Y-50101298D01*
X93478328Y-50101298D01*
X93483494Y-50098537D01*
X93580185Y-50019185D01*
X93659537Y-49922494D01*
X93718502Y-49812180D01*
X93754812Y-49692482D01*
X93767072Y-49568000D01*
X93767072Y-48863040D01*
X96080591Y-48863040D01*
X96175430Y-49127881D01*
X96320115Y-49369131D01*
X96509086Y-49577519D01*
X96735080Y-49745037D01*
X96989413Y-49865246D01*
X97123461Y-49905904D01*
X97345500Y-49783915D01*
X97345500Y-48641000D01*
X97599500Y-48641000D01*
X97599500Y-49783915D01*
X97821539Y-49905904D01*
X97955587Y-49865246D01*
X98209920Y-49745037D01*
X98435914Y-49577519D01*
X98624885Y-49369131D01*
X98769570Y-49127881D01*
X98864409Y-48863040D01*
X98743124Y-48641000D01*
X97599500Y-48641000D01*
X97345500Y-48641000D01*
X96201876Y-48641000D01*
X96080591Y-48863040D01*
X93767072Y-48863040D01*
X93767072Y-48164960D01*
X96080591Y-48164960D01*
X96201876Y-48387000D01*
X97345500Y-48387000D01*
X97345500Y-47244085D01*
X97599500Y-47244085D01*
X97599500Y-48387000D01*
X98743124Y-48387000D01*
X98864409Y-48164960D01*
X98769570Y-47900119D01*
X98624885Y-47658869D01*
X98435914Y-47450481D01*
X98209920Y-47282963D01*
X97955587Y-47162754D01*
X97821539Y-47122096D01*
X97599500Y-47244085D01*
X97345500Y-47244085D01*
X97123461Y-47122096D01*
X96989413Y-47162754D01*
X96735080Y-47282963D01*
X96509086Y-47450481D01*
X96320115Y-47658869D01*
X96175430Y-47900119D01*
X96080591Y-48164960D01*
X93767072Y-48164960D01*
X93767072Y-47968000D01*
X93754812Y-47843518D01*
X93718502Y-47723820D01*
X93659537Y-47613506D01*
X93580185Y-47516815D01*
X93483494Y-47437463D01*
X93373180Y-47378498D01*
X93253482Y-47342188D01*
X93129000Y-47329928D01*
X91529000Y-47329928D01*
X91404518Y-47342188D01*
X91284820Y-47378498D01*
X91174506Y-47437463D01*
X91077815Y-47516815D01*
X90998463Y-47613506D01*
X90939498Y-47723820D01*
X90903188Y-47843518D01*
X90890928Y-47968000D01*
X90890928Y-48033000D01*
X87848748Y-48033000D01*
X87728637Y-47853241D01*
X87528759Y-47653363D01*
X87293727Y-47496320D01*
X87032574Y-47388147D01*
X86755335Y-47333000D01*
X86472665Y-47333000D01*
X86290113Y-47369312D01*
X86034804Y-47114002D01*
X86011001Y-47084999D01*
X85895276Y-46990026D01*
X85763247Y-46919454D01*
X85619986Y-46875997D01*
X85508333Y-46865000D01*
X85508322Y-46865000D01*
X85471000Y-46861324D01*
X85433678Y-46865000D01*
X83031443Y-46865000D01*
X82928037Y-46710241D01*
X82728159Y-46510363D01*
X82493127Y-46353320D01*
X82231974Y-46245147D01*
X81954735Y-46190000D01*
X81672065Y-46190000D01*
X81636961Y-46196983D01*
X81453800Y-46013822D01*
X81453800Y-44442413D01*
X87436192Y-44442413D01*
X87531956Y-44706814D01*
X87821571Y-44847704D01*
X88133108Y-44929384D01*
X88454595Y-44948718D01*
X88773675Y-44904961D01*
X89078088Y-44799795D01*
X89252044Y-44706814D01*
X89347808Y-44442413D01*
X89284308Y-44378913D01*
X93786192Y-44378913D01*
X93881956Y-44643314D01*
X94171571Y-44784204D01*
X94483108Y-44865884D01*
X94804595Y-44885218D01*
X95123675Y-44841461D01*
X95428088Y-44736295D01*
X95602044Y-44643314D01*
X95628810Y-44569413D01*
X99882192Y-44569413D01*
X99977956Y-44833814D01*
X100267571Y-44974704D01*
X100579108Y-45056384D01*
X100900595Y-45075718D01*
X101219675Y-45031961D01*
X101524088Y-44926795D01*
X101698044Y-44833814D01*
X101717581Y-44779872D01*
X105765000Y-44779872D01*
X105765000Y-45220128D01*
X105850890Y-45651925D01*
X106019369Y-46058669D01*
X106263962Y-46424729D01*
X106575271Y-46736038D01*
X106941331Y-46980631D01*
X107348075Y-47149110D01*
X107779872Y-47235000D01*
X108220128Y-47235000D01*
X108651925Y-47149110D01*
X109058669Y-46980631D01*
X109424729Y-46736038D01*
X109736038Y-46424729D01*
X109980631Y-46058669D01*
X110149110Y-45651925D01*
X110235000Y-45220128D01*
X110235000Y-44779872D01*
X110149110Y-44348075D01*
X109980631Y-43941331D01*
X109736038Y-43575271D01*
X109424729Y-43263962D01*
X109058669Y-43019369D01*
X108651925Y-42850890D01*
X108220128Y-42765000D01*
X107779872Y-42765000D01*
X107348075Y-42850890D01*
X106941331Y-43019369D01*
X106575271Y-43263962D01*
X106263962Y-43575271D01*
X106019369Y-43941331D01*
X105850890Y-44348075D01*
X105765000Y-44779872D01*
X101717581Y-44779872D01*
X101793808Y-44569413D01*
X100838000Y-43613605D01*
X99882192Y-44569413D01*
X95628810Y-44569413D01*
X95697808Y-44378913D01*
X94742000Y-43423105D01*
X93786192Y-44378913D01*
X89284308Y-44378913D01*
X88392000Y-43486605D01*
X87436192Y-44442413D01*
X81453800Y-44442413D01*
X81453800Y-44334425D01*
X81543282Y-44325612D01*
X81662980Y-44289302D01*
X81773294Y-44230337D01*
X81869985Y-44150985D01*
X81949337Y-44054294D01*
X82008302Y-43943980D01*
X82044612Y-43824282D01*
X82056872Y-43699800D01*
X82056872Y-43369595D01*
X86750282Y-43369595D01*
X86794039Y-43688675D01*
X86899205Y-43993088D01*
X86992186Y-44167044D01*
X87256587Y-44262808D01*
X88212395Y-43307000D01*
X88571605Y-43307000D01*
X89527413Y-44262808D01*
X89791814Y-44167044D01*
X89932704Y-43877429D01*
X90014384Y-43565892D01*
X90030008Y-43306095D01*
X93100282Y-43306095D01*
X93144039Y-43625175D01*
X93249205Y-43929588D01*
X93342186Y-44103544D01*
X93606587Y-44199308D01*
X94562395Y-43243500D01*
X94921605Y-43243500D01*
X95877413Y-44199308D01*
X96141814Y-44103544D01*
X96282704Y-43813929D01*
X96364384Y-43502392D01*
X96364732Y-43496595D01*
X99196282Y-43496595D01*
X99240039Y-43815675D01*
X99345205Y-44120088D01*
X99438186Y-44294044D01*
X99702587Y-44389808D01*
X100658395Y-43434000D01*
X101017605Y-43434000D01*
X101973413Y-44389808D01*
X102237814Y-44294044D01*
X102378704Y-44004429D01*
X102460384Y-43692892D01*
X102479718Y-43371405D01*
X102435961Y-43052325D01*
X102330795Y-42747912D01*
X102237814Y-42573956D01*
X101973413Y-42478192D01*
X101017605Y-43434000D01*
X100658395Y-43434000D01*
X99702587Y-42478192D01*
X99438186Y-42573956D01*
X99297296Y-42863571D01*
X99215616Y-43175108D01*
X99196282Y-43496595D01*
X96364732Y-43496595D01*
X96383718Y-43180905D01*
X96339961Y-42861825D01*
X96234795Y-42557412D01*
X96141814Y-42383456D01*
X95907494Y-42298587D01*
X99882192Y-42298587D01*
X100838000Y-43254395D01*
X101793808Y-42298587D01*
X101698044Y-42034186D01*
X101408429Y-41893296D01*
X101096892Y-41811616D01*
X100775405Y-41792282D01*
X100456325Y-41836039D01*
X100151912Y-41941205D01*
X99977956Y-42034186D01*
X99882192Y-42298587D01*
X95907494Y-42298587D01*
X95877413Y-42287692D01*
X94921605Y-43243500D01*
X94562395Y-43243500D01*
X93606587Y-42287692D01*
X93342186Y-42383456D01*
X93201296Y-42673071D01*
X93119616Y-42984608D01*
X93100282Y-43306095D01*
X90030008Y-43306095D01*
X90033718Y-43244405D01*
X89989961Y-42925325D01*
X89884795Y-42620912D01*
X89791814Y-42446956D01*
X89527413Y-42351192D01*
X88571605Y-43307000D01*
X88212395Y-43307000D01*
X87256587Y-42351192D01*
X86992186Y-42446956D01*
X86851296Y-42736571D01*
X86769616Y-43048108D01*
X86750282Y-43369595D01*
X82056872Y-43369595D01*
X82056872Y-42171587D01*
X87436192Y-42171587D01*
X88392000Y-43127395D01*
X89347808Y-42171587D01*
X89324809Y-42108087D01*
X93786192Y-42108087D01*
X94742000Y-43063895D01*
X95697808Y-42108087D01*
X95602044Y-41843686D01*
X95312429Y-41702796D01*
X95000892Y-41621116D01*
X94679405Y-41601782D01*
X94360325Y-41645539D01*
X94055912Y-41750705D01*
X93881956Y-41843686D01*
X93786192Y-42108087D01*
X89324809Y-42108087D01*
X89252044Y-41907186D01*
X88962429Y-41766296D01*
X88650892Y-41684616D01*
X88329405Y-41665282D01*
X88010325Y-41709039D01*
X87705912Y-41814205D01*
X87531956Y-41907186D01*
X87436192Y-42171587D01*
X82056872Y-42171587D01*
X82056872Y-41999800D01*
X82044612Y-41875318D01*
X82008302Y-41755620D01*
X81949337Y-41645306D01*
X81869985Y-41548615D01*
X81773294Y-41469263D01*
X81662980Y-41410298D01*
X81543282Y-41373988D01*
X81418800Y-41361728D01*
X79718800Y-41361728D01*
X79594318Y-41373988D01*
X79474620Y-41410298D01*
X79364306Y-41469263D01*
X79267615Y-41548615D01*
X79188263Y-41645306D01*
X79129298Y-41755620D01*
X79104834Y-41836266D01*
X79029069Y-41752212D01*
X78795720Y-41578159D01*
X78532899Y-41452975D01*
X78385690Y-41408324D01*
X78155800Y-41529645D01*
X78155800Y-42722800D01*
X78175800Y-42722800D01*
X78175800Y-42976800D01*
X78155800Y-42976800D01*
X78155800Y-44169955D01*
X78385690Y-44291276D01*
X78532899Y-44246625D01*
X78795720Y-44121441D01*
X79029069Y-43947388D01*
X79104834Y-43863334D01*
X79129298Y-43943980D01*
X79188263Y-44054294D01*
X79267615Y-44150985D01*
X79364306Y-44230337D01*
X79474620Y-44289302D01*
X79594318Y-44325612D01*
X79683800Y-44334425D01*
X79683801Y-46336921D01*
X79679519Y-46380400D01*
X79696605Y-46553890D01*
X79747212Y-46720713D01*
X79829390Y-46874459D01*
X79912268Y-46975446D01*
X79912271Y-46975449D01*
X79939984Y-47009217D01*
X79973751Y-47036929D01*
X80385383Y-47448561D01*
X80378400Y-47483665D01*
X80378400Y-47766335D01*
X80433547Y-48043574D01*
X80541720Y-48304727D01*
X80698763Y-48539759D01*
X80898641Y-48739637D01*
X80928400Y-48759521D01*
X80928401Y-51494163D01*
X80822441Y-51564963D01*
X80622563Y-51764841D01*
X80465520Y-51999873D01*
X80357347Y-52261026D01*
X80302200Y-52538265D01*
X80302200Y-52820935D01*
X80357347Y-53098174D01*
X80465520Y-53359327D01*
X80622563Y-53594359D01*
X80822441Y-53794237D01*
X80977200Y-53897644D01*
X80977201Y-54001556D01*
X80822441Y-54104963D01*
X80622563Y-54304841D01*
X80465520Y-54539873D01*
X80357347Y-54801026D01*
X80302200Y-55078265D01*
X80302200Y-55360935D01*
X80357347Y-55638174D01*
X80465520Y-55899327D01*
X80622563Y-56134359D01*
X80822441Y-56334237D01*
X81054959Y-56489600D01*
X80822441Y-56644963D01*
X80622563Y-56844841D01*
X80519157Y-56999600D01*
X80274003Y-56999600D01*
X77983004Y-54708603D01*
X77959201Y-54679599D01*
X77843476Y-54584626D01*
X77711447Y-54514054D01*
X77568186Y-54470597D01*
X77456533Y-54459600D01*
X77456522Y-54459600D01*
X77419200Y-54455924D01*
X77381878Y-54459600D01*
X75335243Y-54459600D01*
X75231837Y-54304841D01*
X75033239Y-54106243D01*
X75041682Y-54105412D01*
X75161380Y-54069102D01*
X75271694Y-54010137D01*
X75368385Y-53930785D01*
X75447737Y-53834094D01*
X75506702Y-53723780D01*
X75543012Y-53604082D01*
X75555272Y-53479600D01*
X75552200Y-52965350D01*
X75393450Y-52806600D01*
X74244200Y-52806600D01*
X74244200Y-52826600D01*
X73990200Y-52826600D01*
X73990200Y-52806600D01*
X72840950Y-52806600D01*
X72682200Y-52965350D01*
X72679128Y-53479600D01*
X72691388Y-53604082D01*
X72727698Y-53723780D01*
X72786663Y-53834094D01*
X72866015Y-53930785D01*
X72962706Y-54010137D01*
X73073020Y-54069102D01*
X73192718Y-54105412D01*
X73201161Y-54106243D01*
X73002563Y-54304841D01*
X72845520Y-54539873D01*
X72737347Y-54801026D01*
X72682200Y-55078265D01*
X72682200Y-55360935D01*
X72737347Y-55638174D01*
X72845520Y-55899327D01*
X73002563Y-56134359D01*
X73202441Y-56334237D01*
X73434959Y-56489600D01*
X73202441Y-56644963D01*
X73002563Y-56844841D01*
X72845520Y-57079873D01*
X72737347Y-57341026D01*
X72682200Y-57618265D01*
X72682200Y-57900935D01*
X72737347Y-58178174D01*
X72845520Y-58439327D01*
X73002563Y-58674359D01*
X73202441Y-58874237D01*
X73434959Y-59029600D01*
X73202441Y-59184963D01*
X73002563Y-59384841D01*
X72982679Y-59414600D01*
X72005000Y-59414600D01*
X72005000Y-57701465D01*
X72009281Y-57657999D01*
X72005000Y-57614533D01*
X72005000Y-57614523D01*
X71992195Y-57484510D01*
X71941589Y-57317687D01*
X71859411Y-57163941D01*
X71748817Y-57029183D01*
X71715050Y-57001471D01*
X70506534Y-55792956D01*
X70478817Y-55759183D01*
X70344059Y-55648589D01*
X70190313Y-55566411D01*
X70023490Y-55515805D01*
X69893477Y-55503000D01*
X69893469Y-55503000D01*
X69850000Y-55498719D01*
X69806531Y-55503000D01*
X67676579Y-55503000D01*
X66951579Y-54778000D01*
X67574928Y-54778000D01*
X67587188Y-54902482D01*
X67623498Y-55022180D01*
X67682463Y-55132494D01*
X67761815Y-55229185D01*
X67858506Y-55308537D01*
X67968820Y-55367502D01*
X68088518Y-55403812D01*
X68213000Y-55416072D01*
X68802250Y-55413000D01*
X68961000Y-55254250D01*
X68961000Y-54192500D01*
X69215000Y-54192500D01*
X69215000Y-55254250D01*
X69373750Y-55413000D01*
X69963000Y-55416072D01*
X70087482Y-55403812D01*
X70207180Y-55367502D01*
X70317494Y-55308537D01*
X70414185Y-55229185D01*
X70493537Y-55132494D01*
X70552502Y-55022180D01*
X70588812Y-54902482D01*
X70601072Y-54778000D01*
X70598000Y-54351250D01*
X70439250Y-54192500D01*
X69215000Y-54192500D01*
X68961000Y-54192500D01*
X67736750Y-54192500D01*
X67578000Y-54351250D01*
X67574928Y-54778000D01*
X66951579Y-54778000D01*
X65761251Y-53587673D01*
X65758008Y-53554746D01*
X65707472Y-53388150D01*
X65688684Y-53353000D01*
X67574928Y-53353000D01*
X67578000Y-53779750D01*
X67736750Y-53938500D01*
X68961000Y-53938500D01*
X68961000Y-52876750D01*
X69215000Y-52876750D01*
X69215000Y-53938500D01*
X70439250Y-53938500D01*
X70598000Y-53779750D01*
X70601072Y-53353000D01*
X70588812Y-53228518D01*
X70552502Y-53108820D01*
X70493537Y-52998506D01*
X70414185Y-52901815D01*
X70317494Y-52822463D01*
X70207180Y-52763498D01*
X70087482Y-52727188D01*
X69963000Y-52714928D01*
X69373750Y-52718000D01*
X69215000Y-52876750D01*
X68961000Y-52876750D01*
X68802250Y-52718000D01*
X68213000Y-52714928D01*
X68088518Y-52727188D01*
X67968820Y-52763498D01*
X67858506Y-52822463D01*
X67761815Y-52901815D01*
X67682463Y-52998506D01*
X67623498Y-53108820D01*
X67587188Y-53228518D01*
X67574928Y-53353000D01*
X65688684Y-53353000D01*
X65625405Y-53234614D01*
X65514962Y-53100038D01*
X65380386Y-52989595D01*
X65226850Y-52907528D01*
X65060254Y-52856992D01*
X64887000Y-52839928D01*
X63637000Y-52839928D01*
X63463746Y-52856992D01*
X63297150Y-52907528D01*
X63143614Y-52989595D01*
X63009038Y-53100038D01*
X62898595Y-53234614D01*
X62816528Y-53388150D01*
X62765992Y-53554746D01*
X62748928Y-53728000D01*
X61660000Y-53728000D01*
X61660000Y-50628000D01*
X62748928Y-50628000D01*
X62748928Y-51428000D01*
X62765992Y-51601254D01*
X62816528Y-51767850D01*
X62898595Y-51921386D01*
X63009038Y-52055962D01*
X63143614Y-52166405D01*
X63297150Y-52248472D01*
X63463746Y-52299008D01*
X63637000Y-52316072D01*
X64887000Y-52316072D01*
X65060254Y-52299008D01*
X65226850Y-52248472D01*
X65380386Y-52166405D01*
X65514962Y-52055962D01*
X65625405Y-51921386D01*
X65629887Y-51913000D01*
X67653298Y-51913000D01*
X67724595Y-52046386D01*
X67835038Y-52180962D01*
X67969614Y-52291405D01*
X68123150Y-52373472D01*
X68289746Y-52424008D01*
X68463000Y-52441072D01*
X69713000Y-52441072D01*
X69886254Y-52424008D01*
X70052850Y-52373472D01*
X70206386Y-52291405D01*
X70340962Y-52180962D01*
X70451405Y-52046386D01*
X70533472Y-51892850D01*
X70537491Y-51879600D01*
X72679128Y-51879600D01*
X72682200Y-52393850D01*
X72840950Y-52552600D01*
X73990200Y-52552600D01*
X73990200Y-51403350D01*
X74244200Y-51403350D01*
X74244200Y-52552600D01*
X75393450Y-52552600D01*
X75552200Y-52393850D01*
X75555272Y-51879600D01*
X75543012Y-51755118D01*
X75506702Y-51635420D01*
X75447737Y-51525106D01*
X75368385Y-51428415D01*
X75271694Y-51349063D01*
X75161380Y-51290098D01*
X75041682Y-51253788D01*
X74917200Y-51241528D01*
X74402950Y-51244600D01*
X74244200Y-51403350D01*
X73990200Y-51403350D01*
X73831450Y-51244600D01*
X73317200Y-51241528D01*
X73192718Y-51253788D01*
X73073020Y-51290098D01*
X72962706Y-51349063D01*
X72866015Y-51428415D01*
X72786663Y-51525106D01*
X72727698Y-51635420D01*
X72691388Y-51755118D01*
X72679128Y-51879600D01*
X70537491Y-51879600D01*
X70584008Y-51726254D01*
X70601072Y-51553000D01*
X70601072Y-50628000D01*
X70584008Y-50454746D01*
X70533472Y-50288150D01*
X70451405Y-50134614D01*
X70340962Y-50000038D01*
X70206386Y-49889595D01*
X70052850Y-49807528D01*
X69886254Y-49756992D01*
X69713000Y-49739928D01*
X68463000Y-49739928D01*
X68289746Y-49756992D01*
X68123150Y-49807528D01*
X67969614Y-49889595D01*
X67835038Y-50000038D01*
X67724595Y-50134614D01*
X67720113Y-50143000D01*
X65629887Y-50143000D01*
X65625405Y-50134614D01*
X65514962Y-50000038D01*
X65380386Y-49889595D01*
X65226850Y-49807528D01*
X65060254Y-49756992D01*
X64887000Y-49739928D01*
X63637000Y-49739928D01*
X63463746Y-49756992D01*
X63297150Y-49807528D01*
X63143614Y-49889595D01*
X63009038Y-50000038D01*
X62898595Y-50134614D01*
X62816528Y-50288150D01*
X62765992Y-50454746D01*
X62748928Y-50628000D01*
X61660000Y-50628000D01*
X61660000Y-48617702D01*
X76000303Y-48617702D01*
X76071886Y-48861671D01*
X76327396Y-48982571D01*
X76601584Y-49051300D01*
X76883912Y-49065217D01*
X77163530Y-49023787D01*
X77429692Y-48928603D01*
X77554914Y-48861671D01*
X77626497Y-48617702D01*
X76813400Y-47804605D01*
X76000303Y-48617702D01*
X61660000Y-48617702D01*
X61660000Y-47695512D01*
X75373183Y-47695512D01*
X75414613Y-47975130D01*
X75509797Y-48241292D01*
X75576729Y-48366514D01*
X75820698Y-48438097D01*
X76633795Y-47625000D01*
X76993005Y-47625000D01*
X77806102Y-48438097D01*
X78050071Y-48366514D01*
X78170971Y-48111004D01*
X78239700Y-47836816D01*
X78253617Y-47554488D01*
X78212187Y-47274870D01*
X78117003Y-47008708D01*
X78050071Y-46883486D01*
X77806102Y-46811903D01*
X76993005Y-47625000D01*
X76633795Y-47625000D01*
X75820698Y-46811903D01*
X75576729Y-46883486D01*
X75455829Y-47138996D01*
X75387100Y-47413184D01*
X75373183Y-47695512D01*
X61660000Y-47695512D01*
X61660000Y-44779872D01*
X63765000Y-44779872D01*
X63765000Y-45220128D01*
X63850890Y-45651925D01*
X64019369Y-46058669D01*
X64263962Y-46424729D01*
X64575271Y-46736038D01*
X64941331Y-46980631D01*
X65348075Y-47149110D01*
X65779872Y-47235000D01*
X66220128Y-47235000D01*
X66651925Y-47149110D01*
X67058669Y-46980631D01*
X67424729Y-46736038D01*
X67528469Y-46632298D01*
X76000303Y-46632298D01*
X76813400Y-47445395D01*
X77626497Y-46632298D01*
X77554914Y-46388329D01*
X77299404Y-46267429D01*
X77025216Y-46198700D01*
X76742888Y-46184783D01*
X76463270Y-46226213D01*
X76197108Y-46321397D01*
X76071886Y-46388329D01*
X76000303Y-46632298D01*
X67528469Y-46632298D01*
X67736038Y-46424729D01*
X67980631Y-46058669D01*
X68149110Y-45651925D01*
X68235000Y-45220128D01*
X68235000Y-44779872D01*
X68149110Y-44348075D01*
X67980631Y-43941331D01*
X67736038Y-43575271D01*
X67424729Y-43263962D01*
X67339017Y-43206691D01*
X76587319Y-43206691D01*
X76684643Y-43481052D01*
X76833622Y-43731155D01*
X77028531Y-43947388D01*
X77261880Y-44121441D01*
X77524701Y-44246625D01*
X77671910Y-44291276D01*
X77901800Y-44169955D01*
X77901800Y-42976800D01*
X76707986Y-42976800D01*
X76587319Y-43206691D01*
X67339017Y-43206691D01*
X67058669Y-43019369D01*
X66651925Y-42850890D01*
X66220128Y-42765000D01*
X65779872Y-42765000D01*
X65348075Y-42850890D01*
X64941331Y-43019369D01*
X64575271Y-43263962D01*
X64263962Y-43575271D01*
X64019369Y-43941331D01*
X63850890Y-44348075D01*
X63765000Y-44779872D01*
X61660000Y-44779872D01*
X61660000Y-42492909D01*
X76587319Y-42492909D01*
X76707986Y-42722800D01*
X77901800Y-42722800D01*
X77901800Y-41529645D01*
X77671910Y-41408324D01*
X77524701Y-41452975D01*
X77261880Y-41578159D01*
X77028531Y-41752212D01*
X76833622Y-41968445D01*
X76684643Y-42218548D01*
X76587319Y-42492909D01*
X61660000Y-42492909D01*
X61660000Y-40660000D01*
X112340000Y-40660000D01*
X112340001Y-64340000D01*
%TA.AperFunction,Conductor*%
D22*
G36*
X112340001Y-64340000D02*
G01*
X61660000Y-64340000D01*
X61660000Y-59779872D01*
X63765000Y-59779872D01*
X63765000Y-60220128D01*
X63850890Y-60651925D01*
X64019369Y-61058669D01*
X64263962Y-61424729D01*
X64575271Y-61736038D01*
X64941331Y-61980631D01*
X65348075Y-62149110D01*
X65779872Y-62235000D01*
X66220128Y-62235000D01*
X66651925Y-62149110D01*
X67058669Y-61980631D01*
X67424729Y-61736038D01*
X67736038Y-61424729D01*
X67980631Y-61058669D01*
X68149110Y-60651925D01*
X68235000Y-60220128D01*
X68235000Y-59779872D01*
X68149110Y-59348075D01*
X67980631Y-58941331D01*
X67736038Y-58575271D01*
X67424729Y-58263962D01*
X67058669Y-58019369D01*
X66651925Y-57850890D01*
X66220128Y-57765000D01*
X65779872Y-57765000D01*
X65348075Y-57850890D01*
X64941331Y-58019369D01*
X64575271Y-58263962D01*
X64263962Y-58575271D01*
X64019369Y-58941331D01*
X63850890Y-59348075D01*
X63765000Y-59779872D01*
X61660000Y-59779872D01*
X61660000Y-53728000D01*
X62748928Y-53728000D01*
X62748928Y-54528000D01*
X62765992Y-54701254D01*
X62816528Y-54867850D01*
X62898595Y-55021386D01*
X63009038Y-55155962D01*
X63143614Y-55266405D01*
X63297150Y-55348472D01*
X63463746Y-55399008D01*
X63637000Y-55416072D01*
X64887000Y-55416072D01*
X65060254Y-55399008D01*
X65067294Y-55396872D01*
X66653470Y-56983049D01*
X66681183Y-57016817D01*
X66714951Y-57044530D01*
X66714953Y-57044532D01*
X66815941Y-57127411D01*
X66969686Y-57209589D01*
X67098274Y-57248596D01*
X67136510Y-57260195D01*
X67266523Y-57273000D01*
X67266531Y-57273000D01*
X67310000Y-57277281D01*
X67353469Y-57273000D01*
X69483422Y-57273000D01*
X70235000Y-58024579D01*
X70235001Y-59798921D01*
X70230719Y-59842400D01*
X70247805Y-60015890D01*
X70298412Y-60182713D01*
X70380590Y-60336459D01*
X70463468Y-60437446D01*
X70463471Y-60437449D01*
X70491184Y-60471217D01*
X70524952Y-60498930D01*
X70920666Y-60894644D01*
X70948383Y-60928417D01*
X71083141Y-61039011D01*
X71236887Y-61121189D01*
X71403710Y-61171795D01*
X71533723Y-61184600D01*
X71533733Y-61184600D01*
X71577199Y-61188881D01*
X71620665Y-61184600D01*
X72982679Y-61184600D01*
X73002563Y-61214359D01*
X73202441Y-61414237D01*
X73437473Y-61571280D01*
X73698626Y-61679453D01*
X73975865Y-61734600D01*
X74258535Y-61734600D01*
X74535774Y-61679453D01*
X74796927Y-61571280D01*
X75031959Y-61414237D01*
X75231837Y-61214359D01*
X75388880Y-60979327D01*
X75497053Y-60718174D01*
X75552200Y-60440935D01*
X75552200Y-60158265D01*
X75497053Y-59881026D01*
X75388880Y-59619873D01*
X75231837Y-59384841D01*
X75031959Y-59184963D01*
X74799441Y-59029600D01*
X75031959Y-58874237D01*
X75231837Y-58674359D01*
X75311353Y-58555354D01*
X78627551Y-61871553D01*
X78668027Y-61947277D01*
X78763000Y-62063002D01*
X78792002Y-62086803D01*
X79547801Y-62842602D01*
X79571599Y-62871601D01*
X79687324Y-62966574D01*
X79819353Y-63037146D01*
X79962614Y-63080603D01*
X80074267Y-63091600D01*
X80074275Y-63091600D01*
X80111600Y-63095276D01*
X80148925Y-63091600D01*
X90285078Y-63091600D01*
X90322400Y-63095276D01*
X90359722Y-63091600D01*
X90359733Y-63091600D01*
X90471386Y-63080603D01*
X90614647Y-63037146D01*
X90746676Y-62966574D01*
X90862401Y-62871601D01*
X90886204Y-62842597D01*
X91863024Y-61865777D01*
X91877488Y-61871768D01*
X92193367Y-61934600D01*
X92515433Y-61934600D01*
X92831312Y-61871768D01*
X93128863Y-61748518D01*
X93396652Y-61569587D01*
X93624387Y-61341852D01*
X93803318Y-61074063D01*
X93809309Y-61059600D01*
X97321800Y-61059600D01*
X97321800Y-61060384D01*
X97380789Y-61356943D01*
X97496501Y-61636295D01*
X97664488Y-61887705D01*
X97878295Y-62101512D01*
X98129705Y-62269499D01*
X98409057Y-62385211D01*
X98705616Y-62444200D01*
X99007984Y-62444200D01*
X99304543Y-62385211D01*
X99583895Y-62269499D01*
X99835305Y-62101512D01*
X99901744Y-62035073D01*
X99907298Y-62053380D01*
X99966263Y-62163694D01*
X100045615Y-62260385D01*
X100142306Y-62339737D01*
X100252620Y-62398702D01*
X100372318Y-62435012D01*
X100496800Y-62447272D01*
X102296800Y-62447272D01*
X102421282Y-62435012D01*
X102540980Y-62398702D01*
X102651294Y-62339737D01*
X102747985Y-62260385D01*
X102827337Y-62163694D01*
X102886302Y-62053380D01*
X102922612Y-61933682D01*
X102934872Y-61809200D01*
X102934872Y-60009200D01*
X102922612Y-59884718D01*
X102890808Y-59779872D01*
X105765000Y-59779872D01*
X105765000Y-60220128D01*
X105850890Y-60651925D01*
X106019369Y-61058669D01*
X106263962Y-61424729D01*
X106575271Y-61736038D01*
X106941331Y-61980631D01*
X107348075Y-62149110D01*
X107779872Y-62235000D01*
X108220128Y-62235000D01*
X108651925Y-62149110D01*
X109058669Y-61980631D01*
X109424729Y-61736038D01*
X109736038Y-61424729D01*
X109980631Y-61058669D01*
X110149110Y-60651925D01*
X110235000Y-60220128D01*
X110235000Y-59779872D01*
X110149110Y-59348075D01*
X109980631Y-58941331D01*
X109736038Y-58575271D01*
X109424729Y-58263962D01*
X109058669Y-58019369D01*
X108651925Y-57850890D01*
X108220128Y-57765000D01*
X107779872Y-57765000D01*
X107348075Y-57850890D01*
X106941331Y-58019369D01*
X106575271Y-58263962D01*
X106263962Y-58575271D01*
X106019369Y-58941331D01*
X105850890Y-59348075D01*
X105765000Y-59779872D01*
X102890808Y-59779872D01*
X102886302Y-59765020D01*
X102827337Y-59654706D01*
X102747985Y-59558015D01*
X102651294Y-59478663D01*
X102540980Y-59419698D01*
X102421282Y-59383388D01*
X102296800Y-59371128D01*
X102156800Y-59371128D01*
X102156800Y-57949325D01*
X102160476Y-57912000D01*
X102156800Y-57874675D01*
X102156800Y-57874667D01*
X102145803Y-57763014D01*
X102102346Y-57619753D01*
X102031774Y-57487724D01*
X101936801Y-57371999D01*
X101907804Y-57348202D01*
X100182604Y-55623003D01*
X100158801Y-55593999D01*
X100043076Y-55499026D01*
X99911047Y-55428454D01*
X99767786Y-55384997D01*
X99656133Y-55374000D01*
X99656122Y-55374000D01*
X99618800Y-55370324D01*
X99581478Y-55374000D01*
X98690543Y-55374000D01*
X98587137Y-55219241D01*
X98387259Y-55019363D01*
X98152227Y-54862320D01*
X97905204Y-54760000D01*
X102691906Y-54760000D01*
X102761815Y-54845185D01*
X102858506Y-54924537D01*
X102968820Y-54983502D01*
X103088518Y-55019812D01*
X103213000Y-55032072D01*
X104813000Y-55032072D01*
X104937482Y-55019812D01*
X105057180Y-54983502D01*
X105167494Y-54924537D01*
X105264185Y-54845185D01*
X105343537Y-54748494D01*
X105402502Y-54638180D01*
X105438812Y-54518482D01*
X105451072Y-54394000D01*
X105451072Y-54354000D01*
X109182678Y-54354000D01*
X109220000Y-54357676D01*
X109257322Y-54354000D01*
X109257333Y-54354000D01*
X109368986Y-54343003D01*
X109512247Y-54299546D01*
X109644276Y-54228974D01*
X109746603Y-54144997D01*
X109759088Y-54150168D01*
X110074967Y-54213000D01*
X110397033Y-54213000D01*
X110712912Y-54150168D01*
X111010463Y-54026918D01*
X111278252Y-53847987D01*
X111505987Y-53620252D01*
X111684918Y-53352463D01*
X111808168Y-53054912D01*
X111871000Y-52739033D01*
X111871000Y-52416967D01*
X111808168Y-52101088D01*
X111684918Y-51803537D01*
X111505987Y-51535748D01*
X111278252Y-51308013D01*
X111010463Y-51129082D01*
X110712912Y-51005832D01*
X110397033Y-50943000D01*
X110074967Y-50943000D01*
X109759088Y-51005832D01*
X109461537Y-51129082D01*
X109193748Y-51308013D01*
X108966013Y-51535748D01*
X108787082Y-51803537D01*
X108663832Y-52101088D01*
X108601000Y-52416967D01*
X108601000Y-52739033D01*
X108619890Y-52834000D01*
X105451072Y-52834000D01*
X105451072Y-52794000D01*
X105438812Y-52669518D01*
X105402502Y-52549820D01*
X105343537Y-52439506D01*
X105264185Y-52342815D01*
X105167494Y-52263463D01*
X105057180Y-52204498D01*
X104937482Y-52168188D01*
X104813000Y-52155928D01*
X104805785Y-52155928D01*
X104826097Y-52086702D01*
X104013000Y-51273605D01*
X103199903Y-52086702D01*
X103220215Y-52155928D01*
X103213000Y-52155928D01*
X103088518Y-52168188D01*
X102968820Y-52204498D01*
X102858506Y-52263463D01*
X102761815Y-52342815D01*
X102682463Y-52439506D01*
X102623498Y-52549820D01*
X102587188Y-52669518D01*
X102574928Y-52794000D01*
X102574928Y-53240000D01*
X94754322Y-53240000D01*
X94717000Y-53236324D01*
X94679677Y-53240000D01*
X94679667Y-53240000D01*
X94568014Y-53250997D01*
X94424753Y-53294454D01*
X94292723Y-53365026D01*
X94264547Y-53388150D01*
X94176999Y-53459999D01*
X94153201Y-53488997D01*
X92652886Y-54989312D01*
X92470335Y-54953000D01*
X92187665Y-54953000D01*
X91910426Y-55008147D01*
X91649273Y-55116320D01*
X91414241Y-55273363D01*
X91214363Y-55473241D01*
X91057320Y-55708273D01*
X90949147Y-55969426D01*
X90894000Y-56246665D01*
X90894000Y-56529335D01*
X90949147Y-56806574D01*
X91057320Y-57067727D01*
X91214363Y-57302759D01*
X91414241Y-57502637D01*
X91649273Y-57659680D01*
X91910426Y-57767853D01*
X92187665Y-57823000D01*
X92470335Y-57823000D01*
X92747574Y-57767853D01*
X93008727Y-57659680D01*
X93243759Y-57502637D01*
X93443637Y-57302759D01*
X93600680Y-57067727D01*
X93708853Y-56806574D01*
X93764000Y-56529335D01*
X93764000Y-56246665D01*
X93727688Y-56064114D01*
X95031802Y-54760000D01*
X97039796Y-54760000D01*
X96792773Y-54862320D01*
X96557741Y-55019363D01*
X96357863Y-55219241D01*
X96200820Y-55454273D01*
X96092647Y-55715426D01*
X96037500Y-55992665D01*
X96037500Y-56275335D01*
X96092647Y-56552574D01*
X96200820Y-56813727D01*
X96357863Y-57048759D01*
X96557741Y-57248637D01*
X96792773Y-57405680D01*
X97053926Y-57513853D01*
X97331165Y-57569000D01*
X97613835Y-57569000D01*
X97891074Y-57513853D01*
X98152227Y-57405680D01*
X98387259Y-57248637D01*
X98587137Y-57048759D01*
X98690543Y-56894000D01*
X99303999Y-56894000D01*
X100636800Y-58226802D01*
X100636800Y-59371128D01*
X100496800Y-59371128D01*
X100372318Y-59383388D01*
X100252620Y-59419698D01*
X100142306Y-59478663D01*
X100045615Y-59558015D01*
X99966263Y-59654706D01*
X99907298Y-59765020D01*
X99901744Y-59783327D01*
X99835305Y-59716888D01*
X99583895Y-59548901D01*
X99304543Y-59433189D01*
X99007984Y-59374200D01*
X98705616Y-59374200D01*
X98409057Y-59433189D01*
X98152159Y-59539600D01*
X93809309Y-59539600D01*
X93803318Y-59525137D01*
X93624387Y-59257348D01*
X93396652Y-59029613D01*
X93128863Y-58850682D01*
X92831312Y-58727432D01*
X92515433Y-58664600D01*
X92193367Y-58664600D01*
X91877488Y-58727432D01*
X91579937Y-58850682D01*
X91312148Y-59029613D01*
X91084413Y-59257348D01*
X90905482Y-59525137D01*
X90782232Y-59822688D01*
X90719400Y-60138567D01*
X90719400Y-60460633D01*
X90782232Y-60776512D01*
X90788223Y-60790976D01*
X90007599Y-61571600D01*
X87348957Y-61571600D01*
X87580052Y-61417187D01*
X87807787Y-61189452D01*
X87986718Y-60921663D01*
X88109968Y-60624112D01*
X88172800Y-60308233D01*
X88172800Y-59986167D01*
X88109968Y-59670288D01*
X87986718Y-59372737D01*
X87807787Y-59104948D01*
X87580052Y-58877213D01*
X87312263Y-58698282D01*
X87179488Y-58643285D01*
X87172774Y-58630724D01*
X87077801Y-58514999D01*
X86962076Y-58420026D01*
X86830047Y-58349454D01*
X86686786Y-58305997D01*
X86537800Y-58291323D01*
X86388815Y-58305997D01*
X86245554Y-58349454D01*
X86113525Y-58420026D01*
X86057998Y-58465596D01*
X83839067Y-56246665D01*
X85179000Y-56246665D01*
X85179000Y-56529335D01*
X85234147Y-56806574D01*
X85342320Y-57067727D01*
X85499363Y-57302759D01*
X85699241Y-57502637D01*
X85934273Y-57659680D01*
X86195426Y-57767853D01*
X86472665Y-57823000D01*
X86755335Y-57823000D01*
X87032574Y-57767853D01*
X87293727Y-57659680D01*
X87528759Y-57502637D01*
X87728637Y-57302759D01*
X87885680Y-57067727D01*
X87993853Y-56806574D01*
X88049000Y-56529335D01*
X88049000Y-56246665D01*
X87993853Y-55969426D01*
X87885680Y-55708273D01*
X87728637Y-55473241D01*
X87528759Y-55273363D01*
X87293727Y-55116320D01*
X87032574Y-55008147D01*
X86755335Y-54953000D01*
X86472665Y-54953000D01*
X86195426Y-55008147D01*
X85934273Y-55116320D01*
X85699241Y-55273363D01*
X85499363Y-55473241D01*
X85342320Y-55708273D01*
X85234147Y-55969426D01*
X85179000Y-56246665D01*
X83839067Y-56246665D01*
X83135888Y-55543487D01*
X83172200Y-55360935D01*
X83172200Y-55078265D01*
X83117053Y-54801026D01*
X83008880Y-54539873D01*
X82851837Y-54304841D01*
X82651959Y-54104963D01*
X82497200Y-54001557D01*
X82497200Y-53897643D01*
X82651959Y-53794237D01*
X82851837Y-53594359D01*
X83008880Y-53359327D01*
X83117053Y-53098174D01*
X83172200Y-52820935D01*
X83172200Y-52538265D01*
X83117053Y-52261026D01*
X83008880Y-51999873D01*
X82851837Y-51764841D01*
X82698400Y-51611404D01*
X82698400Y-51164512D01*
X102572783Y-51164512D01*
X102614213Y-51444130D01*
X102709397Y-51710292D01*
X102776329Y-51835514D01*
X103020298Y-51907097D01*
X103833395Y-51094000D01*
X104192605Y-51094000D01*
X105005702Y-51907097D01*
X105249671Y-51835514D01*
X105370571Y-51580004D01*
X105439300Y-51305816D01*
X105453217Y-51023488D01*
X105411787Y-50743870D01*
X105316603Y-50477708D01*
X105249671Y-50352486D01*
X105005702Y-50280903D01*
X104192605Y-51094000D01*
X103833395Y-51094000D01*
X103020298Y-50280903D01*
X102776329Y-50352486D01*
X102655429Y-50607996D01*
X102586700Y-50882184D01*
X102572783Y-51164512D01*
X82698400Y-51164512D01*
X82698400Y-48759521D01*
X82728159Y-48739637D01*
X82928037Y-48539759D01*
X83031443Y-48385000D01*
X85156199Y-48385000D01*
X85215312Y-48444113D01*
X85179000Y-48626665D01*
X85179000Y-48909335D01*
X85234147Y-49186574D01*
X85342320Y-49447727D01*
X85499363Y-49682759D01*
X85699241Y-49882637D01*
X85934273Y-50039680D01*
X86195426Y-50147853D01*
X86472665Y-50203000D01*
X86755335Y-50203000D01*
X87032574Y-50147853D01*
X87293727Y-50039680D01*
X87528759Y-49882637D01*
X87728637Y-49682759D01*
X87848748Y-49503000D01*
X90890928Y-49503000D01*
X90890928Y-49568000D01*
X90903188Y-49692482D01*
X90939498Y-49812180D01*
X90998463Y-49922494D01*
X91077815Y-50019185D01*
X91174506Y-50098537D01*
X91284820Y-50157502D01*
X91404518Y-50193812D01*
X91529000Y-50206072D01*
X93129000Y-50206072D01*
X93253482Y-50193812D01*
X93373180Y-50157502D01*
X93478328Y-50101298D01*
X103199903Y-50101298D01*
X104013000Y-50914395D01*
X104826097Y-50101298D01*
X104754514Y-49857329D01*
X104499004Y-49736429D01*
X104224816Y-49667700D01*
X103942488Y-49653783D01*
X103662870Y-49695213D01*
X103396708Y-49790397D01*
X103271486Y-49857329D01*
X103199903Y-50101298D01*
X93478328Y-50101298D01*
X93483494Y-50098537D01*
X93580185Y-50019185D01*
X93659537Y-49922494D01*
X93718502Y-49812180D01*
X93754812Y-49692482D01*
X93767072Y-49568000D01*
X93767072Y-48863040D01*
X96080591Y-48863040D01*
X96175430Y-49127881D01*
X96320115Y-49369131D01*
X96509086Y-49577519D01*
X96735080Y-49745037D01*
X96989413Y-49865246D01*
X97123461Y-49905904D01*
X97345500Y-49783915D01*
X97345500Y-48641000D01*
X97599500Y-48641000D01*
X97599500Y-49783915D01*
X97821539Y-49905904D01*
X97955587Y-49865246D01*
X98209920Y-49745037D01*
X98435914Y-49577519D01*
X98624885Y-49369131D01*
X98769570Y-49127881D01*
X98864409Y-48863040D01*
X98743124Y-48641000D01*
X97599500Y-48641000D01*
X97345500Y-48641000D01*
X96201876Y-48641000D01*
X96080591Y-48863040D01*
X93767072Y-48863040D01*
X93767072Y-48164960D01*
X96080591Y-48164960D01*
X96201876Y-48387000D01*
X97345500Y-48387000D01*
X97345500Y-47244085D01*
X97599500Y-47244085D01*
X97599500Y-48387000D01*
X98743124Y-48387000D01*
X98864409Y-48164960D01*
X98769570Y-47900119D01*
X98624885Y-47658869D01*
X98435914Y-47450481D01*
X98209920Y-47282963D01*
X97955587Y-47162754D01*
X97821539Y-47122096D01*
X97599500Y-47244085D01*
X97345500Y-47244085D01*
X97123461Y-47122096D01*
X96989413Y-47162754D01*
X96735080Y-47282963D01*
X96509086Y-47450481D01*
X96320115Y-47658869D01*
X96175430Y-47900119D01*
X96080591Y-48164960D01*
X93767072Y-48164960D01*
X93767072Y-47968000D01*
X93754812Y-47843518D01*
X93718502Y-47723820D01*
X93659537Y-47613506D01*
X93580185Y-47516815D01*
X93483494Y-47437463D01*
X93373180Y-47378498D01*
X93253482Y-47342188D01*
X93129000Y-47329928D01*
X91529000Y-47329928D01*
X91404518Y-47342188D01*
X91284820Y-47378498D01*
X91174506Y-47437463D01*
X91077815Y-47516815D01*
X90998463Y-47613506D01*
X90939498Y-47723820D01*
X90903188Y-47843518D01*
X90890928Y-47968000D01*
X90890928Y-48033000D01*
X87848748Y-48033000D01*
X87728637Y-47853241D01*
X87528759Y-47653363D01*
X87293727Y-47496320D01*
X87032574Y-47388147D01*
X86755335Y-47333000D01*
X86472665Y-47333000D01*
X86290113Y-47369312D01*
X86034804Y-47114002D01*
X86011001Y-47084999D01*
X85895276Y-46990026D01*
X85763247Y-46919454D01*
X85619986Y-46875997D01*
X85508333Y-46865000D01*
X85508322Y-46865000D01*
X85471000Y-46861324D01*
X85433678Y-46865000D01*
X83031443Y-46865000D01*
X82928037Y-46710241D01*
X82728159Y-46510363D01*
X82493127Y-46353320D01*
X82231974Y-46245147D01*
X81954735Y-46190000D01*
X81672065Y-46190000D01*
X81636961Y-46196983D01*
X81453800Y-46013822D01*
X81453800Y-44442413D01*
X87436192Y-44442413D01*
X87531956Y-44706814D01*
X87821571Y-44847704D01*
X88133108Y-44929384D01*
X88454595Y-44948718D01*
X88773675Y-44904961D01*
X89078088Y-44799795D01*
X89252044Y-44706814D01*
X89347808Y-44442413D01*
X89284308Y-44378913D01*
X93786192Y-44378913D01*
X93881956Y-44643314D01*
X94171571Y-44784204D01*
X94483108Y-44865884D01*
X94804595Y-44885218D01*
X95123675Y-44841461D01*
X95428088Y-44736295D01*
X95602044Y-44643314D01*
X95628810Y-44569413D01*
X99882192Y-44569413D01*
X99977956Y-44833814D01*
X100267571Y-44974704D01*
X100579108Y-45056384D01*
X100900595Y-45075718D01*
X101219675Y-45031961D01*
X101524088Y-44926795D01*
X101698044Y-44833814D01*
X101717581Y-44779872D01*
X105765000Y-44779872D01*
X105765000Y-45220128D01*
X105850890Y-45651925D01*
X106019369Y-46058669D01*
X106263962Y-46424729D01*
X106575271Y-46736038D01*
X106941331Y-46980631D01*
X107348075Y-47149110D01*
X107779872Y-47235000D01*
X108220128Y-47235000D01*
X108651925Y-47149110D01*
X109058669Y-46980631D01*
X109424729Y-46736038D01*
X109736038Y-46424729D01*
X109980631Y-46058669D01*
X110149110Y-45651925D01*
X110235000Y-45220128D01*
X110235000Y-44779872D01*
X110149110Y-44348075D01*
X109980631Y-43941331D01*
X109736038Y-43575271D01*
X109424729Y-43263962D01*
X109058669Y-43019369D01*
X108651925Y-42850890D01*
X108220128Y-42765000D01*
X107779872Y-42765000D01*
X107348075Y-42850890D01*
X106941331Y-43019369D01*
X106575271Y-43263962D01*
X106263962Y-43575271D01*
X106019369Y-43941331D01*
X105850890Y-44348075D01*
X105765000Y-44779872D01*
X101717581Y-44779872D01*
X101793808Y-44569413D01*
X100838000Y-43613605D01*
X99882192Y-44569413D01*
X95628810Y-44569413D01*
X95697808Y-44378913D01*
X94742000Y-43423105D01*
X93786192Y-44378913D01*
X89284308Y-44378913D01*
X88392000Y-43486605D01*
X87436192Y-44442413D01*
X81453800Y-44442413D01*
X81453800Y-44334425D01*
X81543282Y-44325612D01*
X81662980Y-44289302D01*
X81773294Y-44230337D01*
X81869985Y-44150985D01*
X81949337Y-44054294D01*
X82008302Y-43943980D01*
X82044612Y-43824282D01*
X82056872Y-43699800D01*
X82056872Y-43369595D01*
X86750282Y-43369595D01*
X86794039Y-43688675D01*
X86899205Y-43993088D01*
X86992186Y-44167044D01*
X87256587Y-44262808D01*
X88212395Y-43307000D01*
X88571605Y-43307000D01*
X89527413Y-44262808D01*
X89791814Y-44167044D01*
X89932704Y-43877429D01*
X90014384Y-43565892D01*
X90030008Y-43306095D01*
X93100282Y-43306095D01*
X93144039Y-43625175D01*
X93249205Y-43929588D01*
X93342186Y-44103544D01*
X93606587Y-44199308D01*
X94562395Y-43243500D01*
X94921605Y-43243500D01*
X95877413Y-44199308D01*
X96141814Y-44103544D01*
X96282704Y-43813929D01*
X96364384Y-43502392D01*
X96364732Y-43496595D01*
X99196282Y-43496595D01*
X99240039Y-43815675D01*
X99345205Y-44120088D01*
X99438186Y-44294044D01*
X99702587Y-44389808D01*
X100658395Y-43434000D01*
X101017605Y-43434000D01*
X101973413Y-44389808D01*
X102237814Y-44294044D01*
X102378704Y-44004429D01*
X102460384Y-43692892D01*
X102479718Y-43371405D01*
X102435961Y-43052325D01*
X102330795Y-42747912D01*
X102237814Y-42573956D01*
X101973413Y-42478192D01*
X101017605Y-43434000D01*
X100658395Y-43434000D01*
X99702587Y-42478192D01*
X99438186Y-42573956D01*
X99297296Y-42863571D01*
X99215616Y-43175108D01*
X99196282Y-43496595D01*
X96364732Y-43496595D01*
X96383718Y-43180905D01*
X96339961Y-42861825D01*
X96234795Y-42557412D01*
X96141814Y-42383456D01*
X95907494Y-42298587D01*
X99882192Y-42298587D01*
X100838000Y-43254395D01*
X101793808Y-42298587D01*
X101698044Y-42034186D01*
X101408429Y-41893296D01*
X101096892Y-41811616D01*
X100775405Y-41792282D01*
X100456325Y-41836039D01*
X100151912Y-41941205D01*
X99977956Y-42034186D01*
X99882192Y-42298587D01*
X95907494Y-42298587D01*
X95877413Y-42287692D01*
X94921605Y-43243500D01*
X94562395Y-43243500D01*
X93606587Y-42287692D01*
X93342186Y-42383456D01*
X93201296Y-42673071D01*
X93119616Y-42984608D01*
X93100282Y-43306095D01*
X90030008Y-43306095D01*
X90033718Y-43244405D01*
X89989961Y-42925325D01*
X89884795Y-42620912D01*
X89791814Y-42446956D01*
X89527413Y-42351192D01*
X88571605Y-43307000D01*
X88212395Y-43307000D01*
X87256587Y-42351192D01*
X86992186Y-42446956D01*
X86851296Y-42736571D01*
X86769616Y-43048108D01*
X86750282Y-43369595D01*
X82056872Y-43369595D01*
X82056872Y-42171587D01*
X87436192Y-42171587D01*
X88392000Y-43127395D01*
X89347808Y-42171587D01*
X89324809Y-42108087D01*
X93786192Y-42108087D01*
X94742000Y-43063895D01*
X95697808Y-42108087D01*
X95602044Y-41843686D01*
X95312429Y-41702796D01*
X95000892Y-41621116D01*
X94679405Y-41601782D01*
X94360325Y-41645539D01*
X94055912Y-41750705D01*
X93881956Y-41843686D01*
X93786192Y-42108087D01*
X89324809Y-42108087D01*
X89252044Y-41907186D01*
X88962429Y-41766296D01*
X88650892Y-41684616D01*
X88329405Y-41665282D01*
X88010325Y-41709039D01*
X87705912Y-41814205D01*
X87531956Y-41907186D01*
X87436192Y-42171587D01*
X82056872Y-42171587D01*
X82056872Y-41999800D01*
X82044612Y-41875318D01*
X82008302Y-41755620D01*
X81949337Y-41645306D01*
X81869985Y-41548615D01*
X81773294Y-41469263D01*
X81662980Y-41410298D01*
X81543282Y-41373988D01*
X81418800Y-41361728D01*
X79718800Y-41361728D01*
X79594318Y-41373988D01*
X79474620Y-41410298D01*
X79364306Y-41469263D01*
X79267615Y-41548615D01*
X79188263Y-41645306D01*
X79129298Y-41755620D01*
X79104834Y-41836266D01*
X79029069Y-41752212D01*
X78795720Y-41578159D01*
X78532899Y-41452975D01*
X78385690Y-41408324D01*
X78155800Y-41529645D01*
X78155800Y-42722800D01*
X78175800Y-42722800D01*
X78175800Y-42976800D01*
X78155800Y-42976800D01*
X78155800Y-44169955D01*
X78385690Y-44291276D01*
X78532899Y-44246625D01*
X78795720Y-44121441D01*
X79029069Y-43947388D01*
X79104834Y-43863334D01*
X79129298Y-43943980D01*
X79188263Y-44054294D01*
X79267615Y-44150985D01*
X79364306Y-44230337D01*
X79474620Y-44289302D01*
X79594318Y-44325612D01*
X79683800Y-44334425D01*
X79683801Y-46336921D01*
X79679519Y-46380400D01*
X79696605Y-46553890D01*
X79747212Y-46720713D01*
X79829390Y-46874459D01*
X79912268Y-46975446D01*
X79912271Y-46975449D01*
X79939984Y-47009217D01*
X79973751Y-47036929D01*
X80385383Y-47448561D01*
X80378400Y-47483665D01*
X80378400Y-47766335D01*
X80433547Y-48043574D01*
X80541720Y-48304727D01*
X80698763Y-48539759D01*
X80898641Y-48739637D01*
X80928400Y-48759521D01*
X80928401Y-51494163D01*
X80822441Y-51564963D01*
X80622563Y-51764841D01*
X80465520Y-51999873D01*
X80357347Y-52261026D01*
X80302200Y-52538265D01*
X80302200Y-52820935D01*
X80357347Y-53098174D01*
X80465520Y-53359327D01*
X80622563Y-53594359D01*
X80822441Y-53794237D01*
X80977200Y-53897644D01*
X80977201Y-54001556D01*
X80822441Y-54104963D01*
X80622563Y-54304841D01*
X80465520Y-54539873D01*
X80357347Y-54801026D01*
X80302200Y-55078265D01*
X80302200Y-55360935D01*
X80357347Y-55638174D01*
X80465520Y-55899327D01*
X80622563Y-56134359D01*
X80822441Y-56334237D01*
X81054959Y-56489600D01*
X80822441Y-56644963D01*
X80622563Y-56844841D01*
X80519157Y-56999600D01*
X80274003Y-56999600D01*
X77983004Y-54708603D01*
X77959201Y-54679599D01*
X77843476Y-54584626D01*
X77711447Y-54514054D01*
X77568186Y-54470597D01*
X77456533Y-54459600D01*
X77456522Y-54459600D01*
X77419200Y-54455924D01*
X77381878Y-54459600D01*
X75335243Y-54459600D01*
X75231837Y-54304841D01*
X75033239Y-54106243D01*
X75041682Y-54105412D01*
X75161380Y-54069102D01*
X75271694Y-54010137D01*
X75368385Y-53930785D01*
X75447737Y-53834094D01*
X75506702Y-53723780D01*
X75543012Y-53604082D01*
X75555272Y-53479600D01*
X75552200Y-52965350D01*
X75393450Y-52806600D01*
X74244200Y-52806600D01*
X74244200Y-52826600D01*
X73990200Y-52826600D01*
X73990200Y-52806600D01*
X72840950Y-52806600D01*
X72682200Y-52965350D01*
X72679128Y-53479600D01*
X72691388Y-53604082D01*
X72727698Y-53723780D01*
X72786663Y-53834094D01*
X72866015Y-53930785D01*
X72962706Y-54010137D01*
X73073020Y-54069102D01*
X73192718Y-54105412D01*
X73201161Y-54106243D01*
X73002563Y-54304841D01*
X72845520Y-54539873D01*
X72737347Y-54801026D01*
X72682200Y-55078265D01*
X72682200Y-55360935D01*
X72737347Y-55638174D01*
X72845520Y-55899327D01*
X73002563Y-56134359D01*
X73202441Y-56334237D01*
X73434959Y-56489600D01*
X73202441Y-56644963D01*
X73002563Y-56844841D01*
X72845520Y-57079873D01*
X72737347Y-57341026D01*
X72682200Y-57618265D01*
X72682200Y-57900935D01*
X72737347Y-58178174D01*
X72845520Y-58439327D01*
X73002563Y-58674359D01*
X73202441Y-58874237D01*
X73434959Y-59029600D01*
X73202441Y-59184963D01*
X73002563Y-59384841D01*
X72982679Y-59414600D01*
X72005000Y-59414600D01*
X72005000Y-57701465D01*
X72009281Y-57657999D01*
X72005000Y-57614533D01*
X72005000Y-57614523D01*
X71992195Y-57484510D01*
X71941589Y-57317687D01*
X71859411Y-57163941D01*
X71748817Y-57029183D01*
X71715050Y-57001471D01*
X70506534Y-55792956D01*
X70478817Y-55759183D01*
X70344059Y-55648589D01*
X70190313Y-55566411D01*
X70023490Y-55515805D01*
X69893477Y-55503000D01*
X69893469Y-55503000D01*
X69850000Y-55498719D01*
X69806531Y-55503000D01*
X67676579Y-55503000D01*
X66951579Y-54778000D01*
X67574928Y-54778000D01*
X67587188Y-54902482D01*
X67623498Y-55022180D01*
X67682463Y-55132494D01*
X67761815Y-55229185D01*
X67858506Y-55308537D01*
X67968820Y-55367502D01*
X68088518Y-55403812D01*
X68213000Y-55416072D01*
X68802250Y-55413000D01*
X68961000Y-55254250D01*
X68961000Y-54192500D01*
X69215000Y-54192500D01*
X69215000Y-55254250D01*
X69373750Y-55413000D01*
X69963000Y-55416072D01*
X70087482Y-55403812D01*
X70207180Y-55367502D01*
X70317494Y-55308537D01*
X70414185Y-55229185D01*
X70493537Y-55132494D01*
X70552502Y-55022180D01*
X70588812Y-54902482D01*
X70601072Y-54778000D01*
X70598000Y-54351250D01*
X70439250Y-54192500D01*
X69215000Y-54192500D01*
X68961000Y-54192500D01*
X67736750Y-54192500D01*
X67578000Y-54351250D01*
X67574928Y-54778000D01*
X66951579Y-54778000D01*
X65761251Y-53587673D01*
X65758008Y-53554746D01*
X65707472Y-53388150D01*
X65688684Y-53353000D01*
X67574928Y-53353000D01*
X67578000Y-53779750D01*
X67736750Y-53938500D01*
X68961000Y-53938500D01*
X68961000Y-52876750D01*
X69215000Y-52876750D01*
X69215000Y-53938500D01*
X70439250Y-53938500D01*
X70598000Y-53779750D01*
X70601072Y-53353000D01*
X70588812Y-53228518D01*
X70552502Y-53108820D01*
X70493537Y-52998506D01*
X70414185Y-52901815D01*
X70317494Y-52822463D01*
X70207180Y-52763498D01*
X70087482Y-52727188D01*
X69963000Y-52714928D01*
X69373750Y-52718000D01*
X69215000Y-52876750D01*
X68961000Y-52876750D01*
X68802250Y-52718000D01*
X68213000Y-52714928D01*
X68088518Y-52727188D01*
X67968820Y-52763498D01*
X67858506Y-52822463D01*
X67761815Y-52901815D01*
X67682463Y-52998506D01*
X67623498Y-53108820D01*
X67587188Y-53228518D01*
X67574928Y-53353000D01*
X65688684Y-53353000D01*
X65625405Y-53234614D01*
X65514962Y-53100038D01*
X65380386Y-52989595D01*
X65226850Y-52907528D01*
X65060254Y-52856992D01*
X64887000Y-52839928D01*
X63637000Y-52839928D01*
X63463746Y-52856992D01*
X63297150Y-52907528D01*
X63143614Y-52989595D01*
X63009038Y-53100038D01*
X62898595Y-53234614D01*
X62816528Y-53388150D01*
X62765992Y-53554746D01*
X62748928Y-53728000D01*
X61660000Y-53728000D01*
X61660000Y-50628000D01*
X62748928Y-50628000D01*
X62748928Y-51428000D01*
X62765992Y-51601254D01*
X62816528Y-51767850D01*
X62898595Y-51921386D01*
X63009038Y-52055962D01*
X63143614Y-52166405D01*
X63297150Y-52248472D01*
X63463746Y-52299008D01*
X63637000Y-52316072D01*
X64887000Y-52316072D01*
X65060254Y-52299008D01*
X65226850Y-52248472D01*
X65380386Y-52166405D01*
X65514962Y-52055962D01*
X65625405Y-51921386D01*
X65629887Y-51913000D01*
X67653298Y-51913000D01*
X67724595Y-52046386D01*
X67835038Y-52180962D01*
X67969614Y-52291405D01*
X68123150Y-52373472D01*
X68289746Y-52424008D01*
X68463000Y-52441072D01*
X69713000Y-52441072D01*
X69886254Y-52424008D01*
X70052850Y-52373472D01*
X70206386Y-52291405D01*
X70340962Y-52180962D01*
X70451405Y-52046386D01*
X70533472Y-51892850D01*
X70537491Y-51879600D01*
X72679128Y-51879600D01*
X72682200Y-52393850D01*
X72840950Y-52552600D01*
X73990200Y-52552600D01*
X73990200Y-51403350D01*
X74244200Y-51403350D01*
X74244200Y-52552600D01*
X75393450Y-52552600D01*
X75552200Y-52393850D01*
X75555272Y-51879600D01*
X75543012Y-51755118D01*
X75506702Y-51635420D01*
X75447737Y-51525106D01*
X75368385Y-51428415D01*
X75271694Y-51349063D01*
X75161380Y-51290098D01*
X75041682Y-51253788D01*
X74917200Y-51241528D01*
X74402950Y-51244600D01*
X74244200Y-51403350D01*
X73990200Y-51403350D01*
X73831450Y-51244600D01*
X73317200Y-51241528D01*
X73192718Y-51253788D01*
X73073020Y-51290098D01*
X72962706Y-51349063D01*
X72866015Y-51428415D01*
X72786663Y-51525106D01*
X72727698Y-51635420D01*
X72691388Y-51755118D01*
X72679128Y-51879600D01*
X70537491Y-51879600D01*
X70584008Y-51726254D01*
X70601072Y-51553000D01*
X70601072Y-50628000D01*
X70584008Y-50454746D01*
X70533472Y-50288150D01*
X70451405Y-50134614D01*
X70340962Y-50000038D01*
X70206386Y-49889595D01*
X70052850Y-49807528D01*
X69886254Y-49756992D01*
X69713000Y-49739928D01*
X68463000Y-49739928D01*
X68289746Y-49756992D01*
X68123150Y-49807528D01*
X67969614Y-49889595D01*
X67835038Y-50000038D01*
X67724595Y-50134614D01*
X67720113Y-50143000D01*
X65629887Y-50143000D01*
X65625405Y-50134614D01*
X65514962Y-50000038D01*
X65380386Y-49889595D01*
X65226850Y-49807528D01*
X65060254Y-49756992D01*
X64887000Y-49739928D01*
X63637000Y-49739928D01*
X63463746Y-49756992D01*
X63297150Y-49807528D01*
X63143614Y-49889595D01*
X63009038Y-50000038D01*
X62898595Y-50134614D01*
X62816528Y-50288150D01*
X62765992Y-50454746D01*
X62748928Y-50628000D01*
X61660000Y-50628000D01*
X61660000Y-48617702D01*
X76000303Y-48617702D01*
X76071886Y-48861671D01*
X76327396Y-48982571D01*
X76601584Y-49051300D01*
X76883912Y-49065217D01*
X77163530Y-49023787D01*
X77429692Y-48928603D01*
X77554914Y-48861671D01*
X77626497Y-48617702D01*
X76813400Y-47804605D01*
X76000303Y-48617702D01*
X61660000Y-48617702D01*
X61660000Y-47695512D01*
X75373183Y-47695512D01*
X75414613Y-47975130D01*
X75509797Y-48241292D01*
X75576729Y-48366514D01*
X75820698Y-48438097D01*
X76633795Y-47625000D01*
X76993005Y-47625000D01*
X77806102Y-48438097D01*
X78050071Y-48366514D01*
X78170971Y-48111004D01*
X78239700Y-47836816D01*
X78253617Y-47554488D01*
X78212187Y-47274870D01*
X78117003Y-47008708D01*
X78050071Y-46883486D01*
X77806102Y-46811903D01*
X76993005Y-47625000D01*
X76633795Y-47625000D01*
X75820698Y-46811903D01*
X75576729Y-46883486D01*
X75455829Y-47138996D01*
X75387100Y-47413184D01*
X75373183Y-47695512D01*
X61660000Y-47695512D01*
X61660000Y-44779872D01*
X63765000Y-44779872D01*
X63765000Y-45220128D01*
X63850890Y-45651925D01*
X64019369Y-46058669D01*
X64263962Y-46424729D01*
X64575271Y-46736038D01*
X64941331Y-46980631D01*
X65348075Y-47149110D01*
X65779872Y-47235000D01*
X66220128Y-47235000D01*
X66651925Y-47149110D01*
X67058669Y-46980631D01*
X67424729Y-46736038D01*
X67528469Y-46632298D01*
X76000303Y-46632298D01*
X76813400Y-47445395D01*
X77626497Y-46632298D01*
X77554914Y-46388329D01*
X77299404Y-46267429D01*
X77025216Y-46198700D01*
X76742888Y-46184783D01*
X76463270Y-46226213D01*
X76197108Y-46321397D01*
X76071886Y-46388329D01*
X76000303Y-46632298D01*
X67528469Y-46632298D01*
X67736038Y-46424729D01*
X67980631Y-46058669D01*
X68149110Y-45651925D01*
X68235000Y-45220128D01*
X68235000Y-44779872D01*
X68149110Y-44348075D01*
X67980631Y-43941331D01*
X67736038Y-43575271D01*
X67424729Y-43263962D01*
X67339017Y-43206691D01*
X76587319Y-43206691D01*
X76684643Y-43481052D01*
X76833622Y-43731155D01*
X77028531Y-43947388D01*
X77261880Y-44121441D01*
X77524701Y-44246625D01*
X77671910Y-44291276D01*
X77901800Y-44169955D01*
X77901800Y-42976800D01*
X76707986Y-42976800D01*
X76587319Y-43206691D01*
X67339017Y-43206691D01*
X67058669Y-43019369D01*
X66651925Y-42850890D01*
X66220128Y-42765000D01*
X65779872Y-42765000D01*
X65348075Y-42850890D01*
X64941331Y-43019369D01*
X64575271Y-43263962D01*
X64263962Y-43575271D01*
X64019369Y-43941331D01*
X63850890Y-44348075D01*
X63765000Y-44779872D01*
X61660000Y-44779872D01*
X61660000Y-42492909D01*
X76587319Y-42492909D01*
X76707986Y-42722800D01*
X77901800Y-42722800D01*
X77901800Y-41529645D01*
X77671910Y-41408324D01*
X77524701Y-41452975D01*
X77261880Y-41578159D01*
X77028531Y-41752212D01*
X76833622Y-41968445D01*
X76684643Y-42218548D01*
X76587319Y-42492909D01*
X61660000Y-42492909D01*
X61660000Y-40660000D01*
X112340000Y-40660000D01*
X112340001Y-64340000D01*
G37*
%TD.AperFunction*%
%TD*%
M02*
