M48
; DRILL file {KiCad 5.1.9-73d0e3b20d~88~ubuntu20.04.1} date Wed Mar 24 21:29:29 2021
; FORMAT={-:-/ absolute / inch / decimal}
; #@! TF.CreationDate,2021-03-24T21:29:29+01:00
; #@! TF.GenerationSoftware,Kicad,Pcbnew,5.1.9-73d0e3b20d~88~ubuntu20.04.1
; #@! TF.FileFunction,Plated,1,2,PTH
FMAT,2
INCH
T1C0.0315
T2C0.0354
T3C0.0394
%
G90
G05
T1
X2.918Y-2.074
X2.918Y-2.174
X2.918Y-2.274
X2.918Y-2.374
X3.0241Y-1.875
X3.218Y-2.074
X3.218Y-2.174
X3.218Y-2.274
X3.218Y-2.374
X3.221Y-1.875
X3.41Y-1.92
X3.41Y-2.22
X3.635Y-1.92
X3.635Y-2.22
X3.8375Y-1.91
X3.8375Y-2.21
X4.095Y-2.0116
X4.095Y-2.11
T2
X3.892Y-2.398
X3.992Y-2.398
T3
X3.072Y-1.687
X3.172Y-1.687
X3.407Y-2.368
X3.48Y-1.705
X3.636Y-2.374
X3.73Y-1.7025
X3.97Y-1.71
X4.34Y-2.07
T0
M30
